<svg width="69" height="75" viewBox="0 0 69 75" fill="none" xmlns="http://www.w3.org/2000/svg">
<g clip-path="url(#clip0_23_160)">
<mask id="mask0_23_160" style="mask-type:luminance" maskUnits="userSpaceOnUse" x="0" y="0" width="69" height="75">
<path d="M0 0H69V75H0V0Z" fill="white"/>
</mask>
<g mask="url(#mask0_23_160)">
<path d="M28.415 63.2812H53.9062V67.4531C53.9062 67.7578 53.6798 67.9688 53.462 67.9688H29.9675C29.8422 67.9642 29.7217 67.9149 29.6246 67.8284C29.5276 67.742 29.4594 67.6233 29.4306 67.4906L28.415 63.2812Z" fill="#00B1FF"/>
<path d="M35.0692 37.5L35.6536 39.8438H53.4491C57.3282 39.8438 60.375 43.2867 60.375 47.4094V55.7156C60.375 56.7305 60.1896 57.7031 59.8553 58.5961C60.1896 59.4891 60.375 60.4641 60.375 61.4766V67.4531C60.375 71.55 57.3368 75 53.4621 75H29.9676C28.4128 74.9954 26.9032 74.4314 25.6744 73.396C24.4457 72.3606 23.5669 70.9121 23.1754 69.2766L21.7997 63.5813C21.561 62.5994 21.5024 61.576 21.6272 60.5695C20.9665 59.7175 20.4826 58.7206 20.2084 57.6469L17.1141 46.6617C17.0182 46.3227 16.9539 45.9741 16.9222 45.6211L8.87512 13.4016C7.83149 9.3164 10.1257 5.175 13.8345 4.13203L19.1475 2.60625C20.3608 2.25211 21.6395 2.2598 22.8491 2.62851C24.0587 2.99721 25.1546 3.71332 26.0216 4.70156C28.9282 4.41093 31.3993 6.6539 32.0332 9.48515L34.3318 19.5211L34.3383 19.5445C34.7911 21.6258 34.3146 23.6766 33.0661 25.2047C32.8074 25.5204 32.5215 25.8085 32.2122 26.0648L33.3119 30.4687H46.3594C48.1491 30.4687 49.5937 32.0391 49.5937 33.9844C49.5937 35.9297 48.1491 37.5 46.3594 37.5H35.0692ZM23.6648 53.9062H23.6821L24.3505 56.3414L24.3527 56.3484C24.469 56.8397 24.6974 57.2911 25.0168 57.6609C25.5192 58.2445 26.2243 58.5938 26.9898 58.5938H53.447C53.7926 58.5916 54.1345 58.5154 54.453 58.3696C54.7716 58.2238 55.0606 58.0111 55.3035 57.7438C55.5464 57.4766 55.7384 57.1598 55.8687 56.8118C55.9989 56.4638 56.0648 56.0913 56.0625 55.7156V47.4094C56.0648 47.0339 55.999 46.6616 55.8689 46.3137C55.7388 45.9658 55.5469 45.6492 55.3042 45.382C55.0615 45.1147 54.7728 44.902 54.4545 44.7561C54.1362 44.6101 53.7946 44.5337 53.4491 44.5312H32.3265C32.3112 44.3855 32.2852 44.2413 32.2489 44.1L30.5972 37.5H24.7969C23.0072 37.5 21.5625 35.9297 21.5625 33.9844C21.5625 32.0391 23.0072 30.4687 24.7969 30.4687H28.8442L27.0609 23.3367H27.0545L23.7791 10.1719L23.7748 10.1742L23.5204 9.15703C23.3352 8.41948 22.8883 7.79195 22.2779 7.41227C21.6674 7.03259 20.9432 6.93179 20.2644 7.13203L14.9212 8.67187C14.5842 8.76209 14.2672 8.92467 13.9888 9.15006C13.7105 9.37544 13.4764 9.65907 13.3004 9.98425C13.1244 10.3094 13.01 10.6696 12.964 11.0435C12.918 11.4175 12.9412 11.7977 13.0324 12.1617L21.2304 44.9742C21.2056 45.0783 21.2079 45.1878 21.2369 45.2906L23.6648 53.9062ZM25.9677 60.8203C25.8422 61.335 25.8429 61.8764 25.9699 62.3906L27.3456 68.0883C27.6647 69.4008 28.7407 70.3125 29.9676 70.3125H53.4621C54.8981 70.3125 56.0625 69.0234 56.0625 67.4531V61.4766C56.0625 61.0383 55.9762 60.6234 55.8167 60.2508C55.0969 60.7022 54.2802 60.9391 53.4491 60.9375H26.9898C26.6462 60.9379 26.3036 60.8986 25.9677 60.8203Z" fill="#00B1FF"/>
</g>
</g>
<defs>
<clipPath id="clip0_23_160">
<rect width="69" height="75" fill="white"/>
</clipPath>
</defs>
</svg>
