<svg width="37" height="50" viewBox="0 0 37 50" fill="none" xmlns="http://www.w3.org/2000/svg">
<g filter="url(#filter0_d_2_11)">
<path d="M18.5 34.6875L14.6458 29.0625V23.4375H22.3542V29.0625L18.5 34.6875Z" fill="#FF9800"/>
<path d="M25.4375 19.6875C26.2889 19.6875 26.9792 18.848 26.9792 17.8125C26.9792 16.777 26.2889 15.9375 25.4375 15.9375C24.5861 15.9375 23.8958 16.777 23.8958 17.8125C23.8958 18.848 24.5861 19.6875 25.4375 19.6875Z" fill="#563D85"/>
<path d="M11.5625 19.6875C12.4139 19.6875 13.1042 18.848 13.1042 17.8125C13.1042 16.777 12.4139 15.9375 11.5625 15.9375C10.7111 15.9375 10.0208 16.777 10.0208 17.8125C10.0208 18.848 10.7111 19.6875 11.5625 19.6875Z" fill="#563D85"/>
<path d="M25.4375 12.1875C25.4375 5.06249 11.5625 7.49999 11.5625 12.1875V18.75C11.5625 23.4375 14.6458 27.1875 18.5 27.1875C22.3542 27.1875 25.4375 23.4375 25.4375 18.75V12.1875Z" fill="#FFB74D"/>
<path d="M18.5 3.75C13.7979 3.75 10.7917 8.34375 10.7917 14.0625V16.2187L12.3333 17.8125V13.125L21.5833 9.375L24.6667 13.125V17.8125L26.2083 16.2187V14.0625C26.2083 10.3125 25.4375 6.5625 21.5833 5.625L20.8125 3.75H18.5Z" fill="#FF5722"/>
<path d="M21.5833 18.75C22.0091 18.75 22.3542 18.3303 22.3542 17.8125C22.3542 17.2947 22.0091 16.875 21.5833 16.875C21.1576 16.875 20.8125 17.2947 20.8125 17.8125C20.8125 18.3303 21.1576 18.75 21.5833 18.75Z" fill="#563D85"/>
<path d="M15.4167 18.75C15.8424 18.75 16.1875 18.3303 16.1875 17.8125C16.1875 17.2947 15.8424 16.875 15.4167 16.875C14.9909 16.875 14.6458 17.2947 14.6458 17.8125C14.6458 18.3303 14.9909 18.75 15.4167 18.75Z" fill="#563D85"/>
<path d="M22.3542 29.0625L18.5 30L14.6458 29.0625C14.6458 29.0625 6.16666 30.9375 6.16666 41.25H30.8333C30.8333 30.9375 22.3542 29.0625 22.3542 29.0625Z" fill="#563D85"/>
<path d="M17.7292 32.8125L16.9583 41.25H20.0417L19.2708 32.8125L20.0417 31.875L18.5 30L16.9583 31.875L17.7292 32.8125Z" fill="#3F51B5"/>
</g>
<defs>
<filter id="filter0_d_2_11" x="-4" y="0" width="45" height="53" filterUnits="userSpaceOnUse" color-interpolation-filters="sRGB">
<feFlood flood-opacity="0" result="BackgroundImageFix"/>
<feColorMatrix in="SourceAlpha" type="matrix" values="0 0 0 0 0 0 0 0 0 0 0 0 0 0 0 0 0 0 127 0" result="hardAlpha"/>
<feOffset dy="4"/>
<feGaussianBlur stdDeviation="2"/>
<feComposite in2="hardAlpha" operator="out"/>
<feColorMatrix type="matrix" values="0 0 0 0 0 0 0 0 0 0 0 0 0 0 0 0 0 0 0.25 0"/>
<feBlend mode="normal" in2="BackgroundImageFix" result="effect1_dropShadow_2_11"/>
<feBlend mode="normal" in="SourceGraphic" in2="effect1_dropShadow_2_11" result="shape"/>
</filter>
</defs>
</svg>
