<svg width="82" height="73" viewBox="0 0 82 73" fill="none" xmlns="http://www.w3.org/2000/svg">
<g clip-path="url(#clip0_23_156)">
<path d="M104.094 23.4988L73.9586 27.1778C71.9256 27.426 72.16 28.9479 72.16 29.4997H61.6967C63.6133 24.7837 58.7869 20.0392 52.07 20.0392C44.9963 20.0392 40.1652 25.2525 42.7016 30.052C33.3671 31.7668 29.1801 37.1753 26.5491 41.9937C25.666 43.6108 26.7397 45.446 28.9473 46.0929C31.1567 46.7401 33.6611 45.9516 34.5431 44.3361C39.7035 34.8856 45.4267 35.8067 56.375 35.8067V39.3644C48.9232 40.7916 43.46 45.8336 43.46 51.7325V84.1603C43.46 85.9019 45.3874 87.3138 47.765 87.3138H73.595C75.9726 87.3138 77.9 85.9019 77.9 84.1603V51.5742C77.9 45.6967 72.4118 40.7587 64.985 39.3583V35.8067H72.16C72.16 36.1975 71.8545 37.8717 73.9586 38.1286L104.094 41.8077C105.406 41.9678 106.6 41.2268 106.6 40.2523V25.0541C106.6 24.0797 105.406 23.3386 104.094 23.4988ZM52.07 29.4997C50.4876 29.4997 49.2 28.5566 49.2 27.3974C49.2 26.2382 50.4876 25.2951 52.07 25.2951C53.6524 25.2951 54.94 26.2382 54.94 27.3974C54.94 28.5566 53.6524 29.4997 52.07 29.4997Z" fill="#00B1FF"/>
</g>
<defs>
<clipPath id="clip0_23_156">
<rect width="82" height="73" fill="white"/>
</clipPath>
</defs>
</svg>
