<svg width="62" height="67" viewBox="0 0 62 67" fill="none" xmlns="http://www.w3.org/2000/svg">
<path d="M55.0471 3H7.33726C4.94186 3 3 5.1055 3 7.70276V31.2166C3 33.8138 4.94186 35.9193 7.33726 35.9193H55.0471C57.4425 35.9193 59.3843 33.8138 59.3843 31.2166V7.70276C59.3843 5.1055 57.4425 3 55.0471 3Z" stroke="#00B1FF" stroke-width="5" stroke-linecap="round" stroke-linejoin="round"/>
<path d="M48.5412 35.9193V26.5137C48.5412 25.2665 48.0843 24.0703 47.2709 23.1884C46.4575 22.3064 45.3543 21.811 44.204 21.811H18.1804C17.0301 21.811 15.9269 22.3064 15.1135 23.1884C14.3001 24.0703 13.8432 25.2665 13.8432 26.5137V35.9193M13.8432 50.0275L11.6746 64.1358M31.1922 50.0275V64.1358M48.5412 50.0275L50.7099 64.1358" stroke="#00B1FF" stroke-width="5" stroke-linecap="round" stroke-linejoin="round"/>
</svg>
