<svg width="232" height="186" viewBox="0 0 232 186" fill="none" xmlns="http://www.w3.org/2000/svg">
<g filter="url(#filter0_d_31_23)">
<ellipse cx="115.977" cy="89" rx="111.287" ry="89" fill="#563D85"/>
</g>
<path d="M99.1064 81C102.521 81 105.796 79.9464 108.21 78.0711C110.625 76.1957 111.981 73.6522 111.981 71M99.1064 81C95.6917 81 92.4169 79.9464 90.0024 78.0711C87.5879 76.1957 86.2314 73.6522 86.2314 71M99.1064 81V91M111.981 71C111.981 68.3478 110.625 65.8043 108.21 63.9289C105.796 62.0536 102.521 61 99.1064 61M111.981 71H124.856M99.1064 61C95.6917 61 92.4169 62.0536 90.0024 63.9289C87.5879 65.8043 86.2314 68.3478 86.2314 71M99.1064 61V51M86.2314 71H73.3564M81.9397 57.6667L90.5231 64.3333M107.69 77.6667L116.273 84.3333M116.273 57.6667L107.69 64.3333M90.5231 77.6667L81.9397 84.3333M150.606 91C154.021 91 157.296 89.9464 159.71 88.0711C162.125 86.1957 163.481 83.6522 163.481 81M150.606 91C147.192 91 143.917 89.9464 141.502 88.0711C139.088 86.1957 137.731 83.6522 137.731 81M150.606 91V101M163.481 81C163.481 78.3478 162.125 75.8043 159.71 73.9289C157.296 72.0536 154.021 71 150.606 71M163.481 81H176.356M150.606 71C147.192 71 143.917 72.0536 141.502 73.9289C139.088 75.8043 137.731 78.3478 137.731 81M150.606 71V61M137.731 81H124.856M133.44 67.6667L142.023 74.3333M159.19 87.6667L167.773 94.3333M167.773 67.6667L159.19 74.3333M142.023 87.6667L133.44 94.3333M111.981 121C115.396 121 118.671 119.946 121.085 118.071C123.5 116.196 124.856 113.652 124.856 111M111.981 121C108.567 121 105.292 119.946 102.877 118.071C100.463 116.196 99.1064 113.652 99.1064 111M111.981 121V131M124.856 111C124.856 108.348 123.5 105.804 121.085 103.929C118.671 102.054 115.396 101 111.981 101M124.856 111H137.731M111.981 101C108.567 101 105.292 102.054 102.877 103.929C100.463 105.804 99.1064 108.348 99.1064 111M111.981 101V91M99.1064 111H86.2314M94.8147 97.6667L103.398 104.333M120.565 117.667L129.148 124.333M129.148 97.6667L120.565 104.333M103.398 117.667L94.8147 124.333" stroke="white" stroke-width="5"/>
<defs>
<filter id="filter0_d_31_23" x="0.689697" y="0" width="230.575" height="186" filterUnits="userSpaceOnUse" color-interpolation-filters="sRGB">
<feFlood flood-opacity="0" result="BackgroundImageFix"/>
<feColorMatrix in="SourceAlpha" type="matrix" values="0 0 0 0 0 0 0 0 0 0 0 0 0 0 0 0 0 0 127 0" result="hardAlpha"/>
<feOffset dy="4"/>
<feGaussianBlur stdDeviation="2"/>
<feComposite in2="hardAlpha" operator="out"/>
<feColorMatrix type="matrix" values="0 0 0 0 0 0 0 0 0 0 0 0 0 0 0 0 0 0 0.25 0"/>
<feBlend mode="normal" in2="BackgroundImageFix" result="effect1_dropShadow_31_23"/>
<feBlend mode="normal" in="SourceGraphic" in2="effect1_dropShadow_31_23" result="shape"/>
</filter>
</defs>
</svg>
