<svg width="52" height="56" viewBox="0 0 52 56" fill="none" xmlns="http://www.w3.org/2000/svg">
<path d="M36.1592 48.2084L34.7166 34.9258C34.5122 33.0444 33.7171 31.3137 32.481 30.0592C31.2448 28.8046 29.6527 28.1127 28.004 28.1134H23.036C21.388 28.1139 19.797 28.8065 18.5618 30.0609C17.3266 31.3153 16.5321 33.0453 16.3278 34.9258L14.8829 48.2084C14.8036 48.9381 14.8603 49.6789 15.049 50.3816C15.2378 51.0843 15.5544 51.7327 15.9778 52.2838C16.4012 52.835 16.9217 53.2762 17.5047 53.5783C18.0878 53.8803 18.7201 54.0363 19.3595 54.0357H31.6849C32.3242 54.0359 32.9562 53.8797 33.539 53.5775C34.1218 53.2753 34.642 52.834 35.0652 52.2829C35.4883 51.7318 35.8047 51.0835 35.9933 50.381C36.182 49.6785 36.2385 48.9379 36.1592 48.2084Z" stroke="#00B1FF" stroke-width="3" stroke-linecap="round" stroke-linejoin="round"/>
<path d="M25.5223 17.7444C29.257 17.7444 32.2845 14.2627 32.2845 9.96774C32.2845 5.67279 29.257 2.19104 25.5223 2.19104C21.7876 2.19104 18.76 5.67279 18.76 9.96774C18.76 14.2627 21.7876 17.7444 25.5223 17.7444Z" stroke="#00B1FF" stroke-width="3"/>
<path d="M7.48955 25.521C9.97935 25.521 11.9977 23.1999 11.9977 20.3366C11.9977 17.4733 9.97935 15.1521 7.48955 15.1521C4.99976 15.1521 2.98138 17.4733 2.98138 20.3366C2.98138 23.1999 4.99976 25.521 7.48955 25.521Z" stroke="#00B1FF" stroke-width="3"/>
<path d="M43.5549 25.521C46.0447 25.521 48.0631 23.1999 48.0631 20.3366C48.0631 17.4733 46.0447 15.1521 43.5549 15.1521C41.0651 15.1521 39.0468 17.4733 39.0468 20.3366C39.0468 23.1999 41.0651 25.521 43.5549 25.521Z" stroke="#00B1FF" stroke-width="3"/>
<path d="M7.48955 33.2979H6.7998C5.73263 33.2977 4.70002 33.7329 3.88567 34.5261C3.07132 35.3193 2.52804 36.4189 2.35249 37.6295L1.60188 42.8139C1.49416 43.5567 1.52845 44.3176 1.70234 45.0436C1.87624 45.7696 2.18558 46.4433 2.60884 47.0179C3.0321 47.5925 3.55913 48.0542 4.15326 48.3708C4.7474 48.6874 5.39437 48.8513 6.04919 48.8513H14.2518M43.5549 33.2979H44.2446C45.3118 33.2977 46.3444 33.7329 47.1588 34.5261C47.9731 35.3193 48.5164 36.4189 48.692 37.6295L49.4426 42.8139C49.5503 43.5567 49.516 44.3176 49.3421 45.0436C49.1682 45.7696 48.8589 46.4433 48.4356 47.0179C48.0123 47.5925 47.4853 48.0542 46.8912 48.3708C46.297 48.6874 45.6501 48.8513 44.9953 48.8513H36.7926" stroke="#00B1FF" stroke-width="3" stroke-linecap="round" stroke-linejoin="round"/>
</svg>
