<svg width="39" height="40" viewBox="0 0 39 40" fill="none" xmlns="http://www.w3.org/2000/svg">
<g filter="url(#filter0_d_22_99)">
<path fill-rule="evenodd" clip-rule="evenodd" d="M17.2569 8.08178C18.0139 8.22919 18.7235 8.56853 19.322 9.06931C19.9206 9.57009 20.3893 10.2166 20.686 10.9508C20.9827 11.6849 21.0982 12.4837 21.022 13.2754C20.9458 14.0671 20.6803 14.8268 20.2494 15.4862L32.156 25.0311C32.5438 24.8236 32.9881 24.7576 33.4167 24.8438C33.8454 24.9299 34.2333 25.1632 34.5175 25.5058C34.8016 25.8483 34.9653 26.28 34.9819 26.7307C34.9985 27.1814 34.8672 27.6247 34.6091 27.9886C34.3511 28.3525 33.9815 28.6157 33.5605 28.7353C33.1394 28.8549 32.6915 28.8241 32.2895 28.6477C31.8876 28.4713 31.5552 28.1598 31.3462 27.7637C31.1373 27.3676 31.0642 26.9102 31.1387 26.4658L19.029 16.7573C18.4588 17.1609 17.8085 17.4281 17.1257 17.5393C16.4428 17.6505 15.7446 17.6029 15.0817 17.4002C14.4189 17.1974 13.8082 16.8444 13.2942 16.3671C12.7802 15.8897 12.3757 15.2999 12.1103 14.6406C11.8449 13.9814 11.7252 13.2693 11.76 12.5563C11.7948 11.8432 11.9832 11.1471 12.3114 10.5188C12.6397 9.89045 13.0995 9.34563 13.6574 8.92405C14.2153 8.50246 14.8572 8.21471 15.5364 8.08178L15.5347 0H17.256L17.2569 8.08178ZM17.9446 12.8C17.9446 13.0101 17.9045 13.2182 17.8266 13.4123C17.7488 13.6064 17.6347 13.7828 17.4908 13.9314C17.347 14.0799 17.1762 14.1978 16.9882 14.2782C16.8003 14.3586 16.5988 14.4 16.3954 14.4C16.1919 14.4 15.9905 14.3586 15.8025 14.2782C15.6145 14.1978 15.4438 14.0799 15.2999 13.9314C15.156 13.7828 15.0419 13.6064 14.9641 13.4123C14.8862 13.2182 14.8462 13.0101 14.8462 12.8C14.8462 12.3757 15.0094 11.9687 15.2999 11.6686C15.5904 11.3686 15.9845 11.2 16.3954 11.2C16.8062 11.2 17.2003 11.3686 17.4908 11.6686C17.7814 11.9687 17.9446 12.3757 17.9446 12.8Z" fill="#563D85"/>
<path d="M22.6129 12.7858C22.6131 11.5562 22.2705 10.3526 21.626 9.31886C20.9814 8.2851 20.0622 7.46495 18.9783 6.95646V0.0942383C22.6697 0.429349 24.5873 1.63024 26.3043 3.27379C26.3904 3.35735 26.4764 3.43824 26.5591 3.51646C27.2906 4.20979 27.8724 4.76268 28.1728 5.58935L31.8169 15.6089C31.9146 15.8778 31.9476 16.1672 31.9133 16.4522C31.879 16.7372 31.7783 17.0094 31.6198 17.2455C31.4613 17.4815 31.2498 17.6743 31.0034 17.8074C30.757 17.9405 30.483 18.01 30.2049 18.0098H28.8011V20.0889L22.2815 14.8596C22.5022 14.1923 22.6145 13.4918 22.6137 12.7867L22.6129 12.7858ZM13.8142 6.97424V0.214239C6.0768 1.41691 4 7.37868 4 10.6445C4 15.7707 7.16985 19.7467 8.65623 21.3405V32H23.384V26.2116H27.0789C27.3388 26.2116 27.5867 26.1511 27.807 26.0445L18.6968 18.7378C17.1911 19.3795 15.5012 19.3832 13.9929 18.7479C12.4846 18.1126 11.2791 16.8895 10.6374 15.3433C9.99558 13.7971 9.9691 12.052 10.5636 10.4858C11.1582 8.91952 12.3259 7.65802 13.8142 6.97424Z" fill="#563D85"/>
</g>
<defs>
<filter id="filter0_d_22_99" x="0" y="0" width="38.9833" height="40" filterUnits="userSpaceOnUse" color-interpolation-filters="sRGB">
<feFlood flood-opacity="0" result="BackgroundImageFix"/>
<feColorMatrix in="SourceAlpha" type="matrix" values="0 0 0 0 0 0 0 0 0 0 0 0 0 0 0 0 0 0 127 0" result="hardAlpha"/>
<feOffset dy="4"/>
<feGaussianBlur stdDeviation="2"/>
<feComposite in2="hardAlpha" operator="out"/>
<feColorMatrix type="matrix" values="0 0 0 0 0 0 0 0 0 0 0 0 0 0 0 0 0 0 0.25 0"/>
<feBlend mode="normal" in2="BackgroundImageFix" result="effect1_dropShadow_22_99"/>
<feBlend mode="normal" in="SourceGraphic" in2="effect1_dropShadow_22_99" result="shape"/>
</filter>
</defs>
</svg>
