<svg width="56" height="55" viewBox="0 0 56 55" fill="none" xmlns="http://www.w3.org/2000/svg">
<path d="M8.62146 23.707H21.2936V27.6113H8.62146V23.707ZM8.62146 8.08984H33.9658V11.9941H8.62146V8.08984ZM8.62146 15.8984H33.9658V19.8027H8.62146V15.8984ZM8.62146 43.2284H21.2936V47.1327H8.62146V43.2284ZM55.0861 43.2284V39.3241H50.6487C50.3764 38.1021 49.8514 36.9402 49.1027 35.902L52.2497 32.9933L49.2632 30.233L46.1163 33.1417C44.9931 32.4497 43.736 31.9645 42.4139 31.7127V27.6113H38.1899V31.7127C36.8678 31.9645 35.6107 32.4497 34.4875 33.1417L31.3406 30.233L28.3542 32.9933L31.5011 35.902C30.7524 36.9402 30.2275 38.1021 29.9551 39.3241H25.5177V43.2284H29.9551C30.2275 44.4504 30.7524 45.6124 31.5011 46.6505L28.3542 49.5592L31.3406 52.3196L34.4875 49.4109C35.6107 50.1029 36.8678 50.5881 38.1899 50.8398V54.9413H42.4139V50.8398C43.736 50.5881 44.9931 50.1029 46.1163 49.4109L49.2632 52.3196L52.2497 49.5592L49.1027 46.6505C49.8514 45.6124 50.3764 44.4504 50.6487 43.2284H55.0861ZM40.3019 47.1327C39.0487 47.1327 37.8237 46.7892 36.7818 46.1457C35.7398 45.5022 34.9277 44.5876 34.4481 43.5174C33.9686 42.4473 33.8431 41.2698 34.0876 40.1337C34.332 38.9977 34.9355 37.9542 35.8216 37.1352C36.7077 36.3161 37.8367 35.7584 39.0658 35.5324C40.2949 35.3064 41.5689 35.4224 42.7266 35.8656C43.8844 36.3089 44.874 37.0595 45.5702 38.0226C46.2664 38.9857 46.638 40.118 46.638 41.2763C46.6363 42.829 45.9682 44.3177 44.7803 45.4157C43.5925 46.5136 41.9818 47.1312 40.3019 47.1327Z" fill="#00B1FF"/>
<path d="M21.2936 54.9413H4.3974C3.27745 54.9402 2.2037 54.5286 1.41177 53.7966C0.619851 53.0646 0.174458 52.0721 0.17334 51.037V4.18554C0.174458 3.15037 0.619851 2.1579 1.41177 1.42593C2.2037 0.693959 3.27745 0.282284 4.3974 0.28125H38.1899C39.3098 0.282284 40.3836 0.693959 41.1755 1.42593C41.9674 2.1579 42.4128 3.15037 42.4139 4.18554V23.707H38.1899V4.18554H4.3974V51.037H21.2936V54.9413Z" fill="#00B1FF"/>
</svg>
