<svg width="228" height="186" viewBox="0 0 228 186" fill="none" xmlns="http://www.w3.org/2000/svg">
<g filter="url(#filter0_d_31_42)">
<ellipse cx="114.477" cy="89" rx="109.511" ry="89" fill="#563D85"/>
</g>
<g clip-path="url(#clip0_31_42)">
<path d="M143.966 99.9583V96.5208C143.731 94.9444 142.742 93.489 141.188 92.4323C139.634 91.3757 137.624 90.7916 135.541 90.7916C133.458 90.7916 131.447 91.3757 129.893 92.4323C128.339 93.489 127.35 94.9444 127.115 96.5208V99.9583C126.179 100.007 125.296 100.312 124.632 100.817C123.969 101.323 123.568 101.995 123.504 102.708V110.729C123.508 111.48 123.881 112.202 124.55 112.753C125.218 113.304 126.133 113.645 127.115 113.708H143.665C144.651 113.705 145.599 113.421 146.323 112.912C147.047 112.403 147.494 111.706 147.577 110.958V102.937C147.573 102.187 147.2 101.465 146.532 100.914C145.863 100.362 144.948 100.021 143.966 99.9583ZM131.027 96.5208C131.055 96.0964 131.196 95.6807 131.44 95.2987C131.685 94.9167 132.028 94.5764 132.45 94.298C132.871 94.0197 133.363 93.8093 133.894 93.6793C134.425 93.5493 134.985 93.5025 135.541 93.5416C136.096 93.5025 136.657 93.5493 137.188 93.6793C137.719 93.8093 138.21 94.0197 138.632 94.298C139.054 94.5764 139.397 94.9167 139.641 95.2987C139.886 95.6807 140.026 96.0964 140.054 96.5208V99.9583H131.027V96.5208Z" fill="white"/>
<path d="M150.586 86.2083V65.5833C150.586 64.3678 149.952 63.202 148.824 62.3424C147.695 61.4829 146.164 61 144.568 61H84.3861C82.79 61 81.2592 61.4829 80.1306 62.3424C79.002 63.202 78.3679 64.3678 78.3679 65.5833V106.833C78.3679 108.049 79.002 109.215 80.1306 110.074C81.2592 110.934 82.79 111.417 84.3861 111.417H117.486V106.833H84.3861V65.5833H144.568V86.2083" fill="white"/>
<path d="M96.4225 70.1666H90.4043V74.75H96.4225V70.1666ZM138.55 70.1666H102.441V74.75H138.55V70.1666ZM117.486 97.6666H102.441V102.25H117.486V97.6666ZM96.4225 97.6666H90.4043V102.25H96.4225V97.6666ZM108.459 79.3333H102.441V83.9166H108.459V79.3333ZM138.55 79.3333H114.477V83.9166H138.55V79.3333ZM122.927 88.5H114.477V93.0833H121.097V91.9375C121.129 90.6589 121.78 89.4345 122.927 88.5ZM108.459 88.5H102.441V93.0833H108.459V88.5Z" fill="white"/>
</g>
<defs>
<filter id="filter0_d_31_42" x="0.965576" y="0" width="227.023" height="186" filterUnits="userSpaceOnUse" color-interpolation-filters="sRGB">
<feFlood flood-opacity="0" result="BackgroundImageFix"/>
<feColorMatrix in="SourceAlpha" type="matrix" values="0 0 0 0 0 0 0 0 0 0 0 0 0 0 0 0 0 0 127 0" result="hardAlpha"/>
<feOffset dy="4"/>
<feGaussianBlur stdDeviation="2"/>
<feComposite in2="hardAlpha" operator="out"/>
<feColorMatrix type="matrix" values="0 0 0 0 0 0 0 0 0 0 0 0 0 0 0 0 0 0 0.25 0"/>
<feBlend mode="normal" in2="BackgroundImageFix" result="effect1_dropShadow_31_42"/>
<feBlend mode="normal" in="SourceGraphic" in2="effect1_dropShadow_31_42" result="shape"/>
</filter>
<clipPath id="clip0_31_42">
<rect width="72.2184" height="55" fill="white" transform="translate(78.3679 61)"/>
</clipPath>
</defs>
</svg>
