<svg width="89" height="61" viewBox="0 0 89 61" fill="none" xmlns="http://www.w3.org/2000/svg">
<g filter="url(#filter0_d_27_9)">
<g filter="url(#filter1_d_27_9)">
<rect x="4" width="80.9321" height="53" fill="#D9D9D9" fill-opacity="0.7" shape-rendering="crispEdges"/>
</g>
<path d="M15.2828 37.2929C14.8923 37.6834 14.8923 38.3166 15.2828 38.7071L21.6468 45.0711C22.0373 45.4616 22.6705 45.4616 23.061 45.0711C23.4515 44.6805 23.4515 44.0474 23.061 43.6569L17.4041 38L23.061 32.3431C23.4515 31.9526 23.4515 31.3195 23.061 30.9289C22.6705 30.5384 22.0373 30.5384 21.6468 30.9289L15.2828 37.2929ZM83.4333 37L15.9899 37L15.9899 39L83.4333 39L83.4333 37Z" fill="black"/>
<path d="M66.1555 19.7071C66.5461 19.3166 66.5461 18.6834 66.1555 18.2929L59.7916 11.9289C59.401 11.5384 58.7679 11.5384 58.3774 11.9289C57.9868 12.3195 57.9868 12.9526 58.3774 13.3431L64.0342 19L58.3774 24.6569C57.9868 25.0474 57.9868 25.6805 58.3774 26.0711C58.7679 26.4616 59.401 26.4616 59.7916 26.0711L66.1555 19.7071ZM4 20H65.4484V18H4V20Z" fill="black"/>
</g>
<defs>
<filter id="filter0_d_27_9" x="0" y="0" width="88.9321" height="61" filterUnits="userSpaceOnUse" color-interpolation-filters="sRGB">
<feFlood flood-opacity="0" result="BackgroundImageFix"/>
<feColorMatrix in="SourceAlpha" type="matrix" values="0 0 0 0 0 0 0 0 0 0 0 0 0 0 0 0 0 0 127 0" result="hardAlpha"/>
<feOffset dy="4"/>
<feGaussianBlur stdDeviation="2"/>
<feComposite in2="hardAlpha" operator="out"/>
<feColorMatrix type="matrix" values="0 0 0 0 0 0 0 0 0 0 0 0 0 0 0 0 0 0 0.25 0"/>
<feBlend mode="normal" in2="BackgroundImageFix" result="effect1_dropShadow_27_9"/>
<feBlend mode="normal" in="SourceGraphic" in2="effect1_dropShadow_27_9" result="shape"/>
</filter>
<filter id="filter1_d_27_9" x="0" y="0" width="88.9321" height="61" filterUnits="userSpaceOnUse" color-interpolation-filters="sRGB">
<feFlood flood-opacity="0" result="BackgroundImageFix"/>
<feColorMatrix in="SourceAlpha" type="matrix" values="0 0 0 0 0 0 0 0 0 0 0 0 0 0 0 0 0 0 127 0" result="hardAlpha"/>
<feOffset dy="4"/>
<feGaussianBlur stdDeviation="2"/>
<feComposite in2="hardAlpha" operator="out"/>
<feColorMatrix type="matrix" values="0 0 0 0 0 0 0 0 0 0 0 0 0 0 0 0 0 0 0.25 0"/>
<feBlend mode="normal" in2="BackgroundImageFix" result="effect1_dropShadow_27_9"/>
<feBlend mode="normal" in="SourceGraphic" in2="effect1_dropShadow_27_9" result="shape"/>
</filter>
</defs>
</svg>
