<svg width="101" height="73" viewBox="0 0 101 73" fill="none" xmlns="http://www.w3.org/2000/svg">
<mask id="mask0_33_74" style="mask-type:luminance" maskUnits="userSpaceOnUse" x="0" y="0" width="101" height="73">
<path d="M0 0.518311H100.545V72.5734H0V0.518311Z" fill="white"/>
</mask>
<g mask="url(#mask0_33_74)">
<path d="M41.4057 61.3147H78.5508V65.3228C78.5508 65.6155 78.2209 65.8181 77.9035 65.8181H43.668C43.4853 65.8137 43.3097 65.7664 43.1683 65.6833C43.0269 65.6003 42.9276 65.4863 42.8856 65.3588L41.4057 61.3147Z" fill="white"/>
<path d="M51.102 36.5459L51.9535 38.7976H77.8847C83.5372 38.7976 87.9769 42.1054 87.9769 46.0662V54.0463C87.9769 55.0213 87.7067 55.9557 87.2197 56.8136C87.7067 57.6716 87.9769 58.6083 87.9769 59.581V65.3229C87.9769 69.2589 83.5498 72.5734 77.9036 72.5734H43.668C41.4024 72.5691 39.2027 72.0272 37.4122 71.0324C35.6216 70.0377 34.3411 68.646 33.7706 67.0747L31.766 61.6031C31.4182 60.6597 31.3327 59.6766 31.5146 58.7096C30.5519 57.891 29.8467 56.9333 29.4472 55.9017L24.9383 45.3479C24.7985 45.0222 24.7048 44.6873 24.6587 44.3481L12.9326 13.3937C11.4119 9.46898 14.755 5.49019 20.1593 4.48817L27.9013 3.0223C29.6693 2.68207 31.5325 2.68946 33.2952 3.04369C35.0578 3.39792 36.6547 4.08591 37.9181 5.03534C42.1535 4.75613 45.7543 6.91102 46.678 9.6311L50.0275 19.273L50.0369 19.2955C50.6967 21.295 50.0023 23.2653 48.1831 24.7334C47.8062 25.0367 47.3895 25.3135 46.9388 25.5598L48.5413 29.7908H67.5537C70.1616 29.7908 72.2667 31.2994 72.2667 33.1683C72.2667 35.0373 70.1616 36.5459 67.5537 36.5459H51.102ZM34.4838 52.308H34.509L35.483 54.6475L35.4861 54.6542C35.6556 55.1262 35.9885 55.5599 36.4539 55.9152C37.186 56.4759 38.2134 56.8114 39.3288 56.8114H77.8816C78.3852 56.8093 78.8834 56.7362 79.3476 56.596C79.8117 56.4559 80.2328 56.2517 80.5868 55.9949C80.9407 55.7381 81.2206 55.4338 81.4104 55.0994C81.6002 54.7651 81.6961 54.4072 81.6928 54.0463V46.0662C81.6961 45.7054 81.6003 45.3477 81.4107 45.0135C81.2211 44.6793 80.9415 44.3752 80.5879 44.1184C80.2343 43.8616 79.8135 43.6573 79.3497 43.5171C78.8859 43.3768 78.3881 43.3034 77.8847 43.3011H47.1054C47.0831 43.161 47.0452 43.0225 46.9923 42.8868L44.5855 36.5459H36.1334C33.5255 36.5459 31.4203 35.0373 31.4203 33.1683C31.4203 31.2994 33.5255 29.7908 36.1334 29.7908H42.031L39.4325 22.9388H39.4231L34.6504 10.2909L34.6441 10.2931L34.2733 9.31586C34.0035 8.60727 33.3523 8.00439 32.4628 7.63961C31.5732 7.27484 30.518 7.178 29.5288 7.37038L21.7429 8.84976C21.2518 8.93643 20.7898 9.09263 20.3842 9.30917C19.9786 9.5257 19.6375 9.79819 19.381 10.1106C19.1246 10.423 18.9579 10.769 18.8908 11.1283C18.8238 11.4876 18.8576 11.8528 18.9905 12.2026L30.9365 43.7266C30.9003 43.8267 30.9036 43.9319 30.9459 44.0306L34.4838 52.308ZM37.8395 58.9505C37.6566 59.445 37.6577 59.9651 37.8427 60.4592L39.8473 65.9331C40.3123 67.1941 41.8802 68.07 43.668 68.07H77.9036C79.9961 68.07 81.6928 66.8316 81.6928 65.3229V59.581C81.6928 59.1599 81.5672 58.7614 81.3346 58.4034C80.2858 58.8371 79.0957 59.0647 77.8847 59.0631H39.3288C38.8282 59.0635 38.329 59.0257 37.8395 58.9505Z" fill="white"/>
</g>
</svg>
