<svg width="229" height="186" viewBox="0 0 229 186" fill="none" xmlns="http://www.w3.org/2000/svg">
<g filter="url(#filter0_d_31_19)">
<ellipse cx="114.103" cy="89" rx="110.103" ry="89" fill="#563D85"/>
</g>
<path d="M154.174 106.769H162.553C164.775 106.769 166.906 105.999 168.477 104.629C170.048 103.258 170.931 101.4 170.931 99.4616V88.5001C170.931 86.562 170.048 84.7032 168.477 83.3328C166.906 81.9623 164.775 81.1924 162.553 81.1924H154.174C153.063 81.1924 151.998 81.5773 151.212 82.2626C150.426 82.9478 149.985 83.8772 149.985 84.8462V103.115C149.985 104.085 150.426 105.014 151.212 105.699C151.998 106.384 153.063 106.769 154.174 106.769ZM154.174 106.769V112.25C154.174 116.126 152.409 119.844 149.266 122.585C146.124 125.326 141.862 126.865 137.417 126.865M70.3899 81.1924H78.7684C79.8794 81.1924 80.9449 81.5773 81.7306 82.2626C82.5162 82.9478 82.9576 83.8772 82.9576 84.8462V103.115C82.9576 104.085 82.5162 105.014 81.7306 105.699C80.9449 106.384 79.8794 106.769 78.7684 106.769H70.3899C68.1678 106.769 66.0367 105.999 64.4655 104.629C62.8942 103.258 62.0115 101.4 62.0115 99.4616V88.5001C62.0115 86.562 62.8942 84.7032 64.4655 83.3328C66.0367 81.9623 68.1678 81.1924 70.3899 81.1924Z" stroke="white" stroke-width="5" stroke-linecap="round" stroke-linejoin="round"/>
<path d="M78.7683 81.1923V73.8846C78.7683 65.1631 82.7406 56.7987 89.8112 50.6317C96.8819 44.4646 106.472 41 116.471 41C126.471 41 136.061 44.4646 143.131 50.6317C150.202 56.7987 154.174 65.1631 154.174 73.8846V81.1923M103.904 66.5769V77.5385M129.039 66.5769V77.5385M103.904 92.1538C103.904 101.873 129.039 101.873 129.039 92.1538M126.944 117.731C129.722 117.731 132.386 118.693 134.35 120.406C136.314 122.119 137.417 124.443 137.417 126.865C137.417 129.288 136.314 131.611 134.35 133.325C132.386 135.038 129.722 136 126.944 136H114.377C111.599 136 108.935 135.038 106.971 133.325C105.007 131.611 103.904 129.288 103.904 126.865C103.904 124.443 105.007 122.119 106.971 120.406C108.935 118.693 111.599 117.731 114.377 117.731H126.944Z" stroke="white" stroke-width="4" stroke-linecap="round" stroke-linejoin="round"/>
<defs>
<filter id="filter0_d_31_19" x="0" y="0" width="228.207" height="186" filterUnits="userSpaceOnUse" color-interpolation-filters="sRGB">
<feFlood flood-opacity="0" result="BackgroundImageFix"/>
<feColorMatrix in="SourceAlpha" type="matrix" values="0 0 0 0 0 0 0 0 0 0 0 0 0 0 0 0 0 0 127 0" result="hardAlpha"/>
<feOffset dy="4"/>
<feGaussianBlur stdDeviation="2"/>
<feComposite in2="hardAlpha" operator="out"/>
<feColorMatrix type="matrix" values="0 0 0 0 0 0 0 0 0 0 0 0 0 0 0 0 0 0 0.25 0"/>
<feBlend mode="normal" in2="BackgroundImageFix" result="effect1_dropShadow_31_19"/>
<feBlend mode="normal" in="SourceGraphic" in2="effect1_dropShadow_31_19" result="shape"/>
</filter>
</defs>
</svg>
