<svg width="42" height="61" viewBox="0 0 42 61" fill="none" xmlns="http://www.w3.org/2000/svg">
<path d="M21 0C15.4305 0 10.089 2.00836 6.15076 5.58328C2.21249 9.15819 0 14.0068 0 19.0625C0 38.125 21 61 21 61C21 61 42 38.125 42 19.0625C42 14.0068 39.7875 9.15819 35.8492 5.58328C31.911 2.00836 26.5695 0 21 0ZM21 30.5C17.6583 30.5 14.4534 29.295 12.0905 27.15C9.7275 25.0051 8.4 22.0959 8.4 19.0625C8.4 16.0291 9.7275 13.1199 12.0905 10.975C14.4534 8.83002 17.6583 7.625 21 7.625C24.3417 7.625 27.5466 8.83002 29.9095 10.975C32.2725 13.1199 33.6 16.0291 33.6 19.0625C33.6 22.0959 32.2725 25.0051 29.9095 27.15C27.5466 29.295 24.3417 30.5 21 30.5Z" fill="#00B1FF"/>
</svg>
