<svg width="67" height="53" viewBox="0 0 67 53" fill="none" xmlns="http://www.w3.org/2000/svg">
<path d="M39.0833 46.375H1.86111C0.832847 46.375 0 47.1162 0 48.0312V51.3438C0 52.2588 0.832847 53 1.86111 53H39.0833C40.1116 53 40.9444 52.2588 40.9444 51.3438V48.0312C40.9444 47.1162 40.1116 46.375 39.0833 46.375ZM63.2778 13.25V8.28125C63.2778 7.36617 62.4449 6.625 61.4167 6.625C60.3884 6.625 59.5556 7.36617 59.5556 8.28125V13.25H55.8333V8.28125C55.8333 7.36617 55.0005 6.625 53.9722 6.625C52.944 6.625 52.1111 7.36617 52.1111 8.28125V13.25H50.25C49.2217 13.25 48.3889 13.9912 48.3889 14.9062V18.2188C48.3889 21.9205 51.1364 25.0187 54.9028 26.0787V38.3443C54.9028 39.7883 53.7977 41.1309 52.1972 41.3659C50.1593 41.665 48.3889 40.2665 48.3889 38.5078V35.6094C48.3889 30.5785 43.8059 26.5 38.1528 26.5H37.2222V6.625C37.2222 2.96572 33.8897 0 29.7778 0H11.1667C7.05477 0 3.72222 2.96572 3.72222 6.625V43.0625H37.2222V31.4688H38.1528C40.7223 31.4688 42.8056 33.3227 42.8056 35.6094V38.1569C42.8056 42.2634 46.1695 45.9371 50.763 46.3357C56.0322 46.7942 60.4861 43.1049 60.4861 38.5078V26.0787C64.2525 25.0187 67 21.9205 67 18.2188V14.9062C67 13.9912 66.1672 13.25 65.1389 13.25H63.2778ZM30.2535 18.1939L19.3544 32.5826C19.0985 32.9273 18.632 33.125 18.1458 33.125C17.2537 33.125 16.579 32.4749 16.7884 31.7876L19.4661 23.1875H12.5625C11.7192 23.1875 11.0678 22.6088 11.1795 21.9567L13.0406 10.8805C13.1325 10.3412 13.7234 9.9375 14.4236 9.9375H22.3333C23.2499 9.9375 23.9176 10.6145 23.6826 11.3049L22.3333 16.5625H29.045C30.1198 16.5625 30.7909 17.4714 30.2535 18.1939Z" fill="#00B1FF"/>
</svg>
