<svg width="222" height="235" viewBox="0 0 222 235" fill="none" xmlns="http://www.w3.org/2000/svg">
<g filter="url(#filter0_d_33_52)">
<path fill-rule="evenodd" clip-rule="evenodd" d="M131.01 32.4286C155.855 32.4286 175.2 47.2728 175.2 64.8571C175.2 82.4415 155.855 97.2857 131.01 97.2857H87.2683C81.5927 97.2857 76.1496 98.994 72.1363 102.035C68.1231 105.076 65.8685 109.2 65.8685 113.5C65.8685 117.8 68.1231 121.924 72.1363 124.965C76.1496 128.006 81.5927 129.714 87.2683 129.714H130.999C155.855 129.714 175.2 144.558 175.2 162.143C175.2 179.727 155.855 194.571 131.01 194.571H87.2683C67.7623 194.571 51.4878 185.354 45.5386 172.844C43.6089 168.799 39.6372 165.5 34.4972 163.673C29.3573 161.846 23.4701 161.641 18.1308 163.104C12.7914 164.566 8.43738 167.575 6.02642 171.469C3.61546 175.364 3.3451 179.825 5.2748 183.87C17.3229 209.148 49.6474 227 87.2683 227H130.999C178.624 227 218 198.293 218 162.143C218.003 152.906 215.373 143.777 210.289 135.382C205.205 126.986 197.787 119.522 188.543 113.5C197.787 107.478 205.205 100.014 210.289 91.6182C215.373 83.2227 218.003 74.0942 218 64.8571C218 28.7074 178.614 0 131.01 0H87.2683C49.6474 0 17.3229 17.8519 5.2748 43.13C4.31931 45.1326 3.89375 47.2582 4.02245 49.3854C4.15115 51.5126 4.83156 53.5998 6.02485 55.5277C7.21814 57.4557 8.90094 59.1867 10.9772 60.6219C13.0534 62.0571 15.4823 63.1684 18.1254 63.8924C23.4633 65.3545 29.3491 65.1501 34.4881 63.3241C39.6271 61.4981 43.5982 58.2001 45.5279 54.1557C51.4878 41.6464 67.7623 32.4286 87.2683 32.4286H130.999H131.01Z" fill="#563D85" fill-opacity="0.2" shape-rendering="crispEdges"/>
</g>
<defs>
<filter id="filter0_d_33_52" x="0" y="0" width="222" height="235" filterUnits="userSpaceOnUse" color-interpolation-filters="sRGB">
<feFlood flood-opacity="0" result="BackgroundImageFix"/>
<feColorMatrix in="SourceAlpha" type="matrix" values="0 0 0 0 0 0 0 0 0 0 0 0 0 0 0 0 0 0 127 0" result="hardAlpha"/>
<feOffset dy="4"/>
<feGaussianBlur stdDeviation="2"/>
<feComposite in2="hardAlpha" operator="out"/>
<feColorMatrix type="matrix" values="0 0 0 0 0 0 0 0 0 0 0 0 0 0 0 0 0 0 0.25 0"/>
<feBlend mode="normal" in2="BackgroundImageFix" result="effect1_dropShadow_33_52"/>
<feBlend mode="normal" in="SourceGraphic" in2="effect1_dropShadow_33_52" result="shape"/>
</filter>
</defs>
</svg>
