<svg width="88" height="45" viewBox="0 0 88 45" fill="none" xmlns="http://www.w3.org/2000/svg">
<path d="M81.125 0C82.0703 0 82.9583 0.127841 83.7891 0.383523C84.6198 0.639205 85.3503 1.01207 85.9805 1.50213C86.6107 1.99219 87.0977 2.53551 87.4414 3.1321C87.7852 3.72869 87.9714 4.3892 88 5.11364V39.8864C88 40.5895 87.8281 41.25 87.4844 41.8679C87.1406 42.4858 86.6393 43.0291 85.9805 43.4979C85.3216 43.9666 84.5911 44.3288 83.7891 44.5845C82.987 44.8402 82.099 44.9787 81.125 45H6.875C5.92969 45 5.04167 44.8722 4.21094 44.6165C3.38021 44.3608 2.64974 43.9879 2.01953 43.4979C1.38932 43.0078 0.902344 42.4645 0.558594 41.8679C0.214844 41.2713 0.0286458 40.6108 0 39.8864V5.11364C0 4.41051 0.171875 3.75 0.515625 3.1321C0.859375 2.5142 1.36068 1.97088 2.01953 1.50213C2.67839 1.03338 3.40885 0.671165 4.21094 0.415483C5.01302 0.159801 5.90104 0.0213068 6.875 0H81.125ZM6.875 4.09091C6.47396 4.09091 6.14453 4.18679 5.88672 4.37855C5.62891 4.57031 5.5 4.81534 5.5 5.11364V12.2727H82.5V5.11364C82.5 4.81534 82.3711 4.57031 82.1133 4.37855C81.8555 4.18679 81.526 4.09091 81.125 4.09091H6.875ZM81.125 40.9091C81.526 40.9091 81.8555 40.8132 82.1133 40.6214C82.3711 40.4297 82.5 40.1847 82.5 39.8864V16.3636H5.5V39.8864C5.5 40.1847 5.62891 40.4297 5.88672 40.6214C6.14453 40.8132 6.47396 40.9091 6.875 40.9091H81.125ZM60.5 28.6364H71.5V32.7273H60.5V28.6364Z" fill="white"/>
</svg>
