<svg width="84" height="69" viewBox="0 0 84 69" fill="none" xmlns="http://www.w3.org/2000/svg">
<path d="M79.7898 20.6138V13.8C79.7898 6.1893 72.2576 0 62.9955 0H21.0097C11.7476 0 4.21538 6.1893 4.21538 13.8V20.6931L3.89628 20.7069C2.8374 20.7697 1.84679 21.1598 1.12386 21.7986C0.400935 22.4375 -0.000631305 23.2776 7.44983e-07 24.15V31.05C7.44983e-07 31.965 0.44235 32.8425 1.22974 33.4895C2.01712 34.1365 3.08505 34.5 4.19858 34.5H4.21538V55.2C4.21538 57.7358 5.9074 59.9334 8.39716 61.134V65.55C8.39716 66.465 8.83951 67.3425 9.6269 67.9895C10.4143 68.6365 11.4822 69 12.5957 69H16.7943C17.9079 69 18.9758 68.6365 19.7632 67.9895C20.5506 67.3425 20.9929 66.465 20.9929 65.55V62.1H62.9787V65.55C62.9787 66.465 63.4211 67.3425 64.2085 67.9895C64.9958 68.6365 66.0638 69 67.1773 69H71.3759C72.4894 69 73.5573 68.6365 74.3447 67.9895C75.1321 67.3425 75.5745 66.465 75.5745 65.55V61.1478C76.8509 60.5479 77.9125 59.6824 78.6525 58.6382C79.3925 57.5941 79.7848 56.4083 79.7898 55.2V34.5C80.9034 34.5 81.9713 34.1365 82.7587 33.4895C83.5461 32.8425 83.9884 31.965 83.9884 31.05V24.3639C84.0368 23.8285 83.9333 23.2911 83.6861 22.7942C82.8338 21.114 81.02 20.7104 79.7898 20.6138ZM71.4011 55.2H12.6125V37.95H71.3969L71.4011 55.2ZM37.804 17.25V31.05H12.6125V17.25H37.804ZM71.3927 17.25V31.05H46.2012V17.25H71.3927ZM21.0097 6.9H62.9955C66.0857 6.9 68.7686 8.29725 70.2255 10.35H13.7797C15.2367 8.29725 17.9195 6.9 21.0097 6.9Z" fill="white"/>
</svg>
