<svg width="87" height="76" viewBox="0 0 87 76" fill="none" xmlns="http://www.w3.org/2000/svg">
<path d="M43.5 0.687256C19.4844 0.687256 0 17.3599 0 37.91C0 58.4756 19.4844 75.1328 43.5 75.1328C67.5338 75.1328 87 58.4756 87 37.91C87 17.3444 67.5338 0.687256 43.5 0.687256ZM43.5 9.99294C61.5163 9.99294 76.125 22.4936 76.125 37.91C76.125 53.3264 61.5163 65.8271 43.5 65.8271C25.4838 65.8271 10.875 53.3264 10.875 37.91C10.875 22.4936 25.4838 9.99294 43.5 9.99294ZM60.0481 19.95C58.87 19.95 57.7825 20.3223 57.0031 21.2218C47.5781 32.0939 44.4969 36.1885 37.7906 47.5569C36.2681 45.8354 25.9006 36.328 20.7713 32.9625C18.1975 31.2719 13.2856 37.1811 15.0438 38.7165C22.9463 45.6803 36.9931 61.1742 39.2769 61.0191C43.1556 60.7555 52.8888 39.8022 66.2469 24.7735C67.6969 23.1605 63.5281 19.919 60.0481 19.95Z" fill="white"/>
</svg>
