<svg width="42" height="61" viewBox="0 0 42 61" fill="none" xmlns="http://www.w3.org/2000/svg">
<path d="M13.8746 30.1436C12.2809 27.2125 11.3329 23.676 11.1373 23.3755C13.4714 21.3076 18.0364 18.709 18.292 14.9803C18.6172 10.1627 12.1945 0.0915013 10.9633 0C7.59357 0.0457507 1.42654 7.29266 0.695714 9.48259C-0.662737 14.0104 0.010488 18.224 2.34578 24.3241C5.31949 33.398 16.3647 50.6109 22.6829 56.0141C26.8639 60.092 29.918 61.6932 33.5649 60.7264C35.2606 60.3177 41.3844 53.9324 41.9977 49.6151C42.1477 48.0138 35.029 37.3981 31.3473 36.9772C28.4888 36.6417 25.7479 42.0799 23.7834 44.738C23.5878 44.4208 21.9125 42.7601 20.1148 40.131C17.7748 37.0062 15.6003 33.3355 13.8746 30.1436Z" fill="#00B1FF"/>
</svg>
