<svg width="44" height="55" viewBox="0 0 44 55" fill="none" xmlns="http://www.w3.org/2000/svg">
<path d="M12.2467 4.45641L9.09127 0.423077C3.79539 5.58462 0.308927 13.5385 0 22.5641H4.41324C4.56955 18.9872 5.35509 15.5014 6.71136 12.3662C8.06764 9.23108 9.95973 6.52738 12.2467 4.45641ZM39.5868 22.5641H44C43.669 13.5385 40.1826 5.58462 34.9087 0.423077L31.7753 4.45641C34.0526 6.53758 35.9362 9.24426 37.2879 12.3777C38.6397 15.5112 39.4252 18.9918 39.5868 22.5641ZM35.2397 23.9744C35.2397 15.3154 31.6209 8.06667 25.3099 6.14872V4.23077C25.3099 1.88974 23.8315 0 22 0C20.1685 0 18.6901 1.88974 18.6901 4.23077V6.14872C12.3571 8.06667 8.76028 15.2872 8.76028 23.9744V38.0769L4.34704 43.7179V46.5385H39.653V43.7179L35.2397 38.0769V23.9744ZM22 55C22.3089 55 22.5958 54.9718 22.8826 54.8872C24.317 54.4923 25.4865 53.2513 26.0602 51.559C26.2808 50.8821 26.3912 50.1487 26.3912 49.359H17.5647C17.5868 52.4615 19.5507 55 22 55Z" fill="#00B1FF"/>
</svg>
