<svg width="60" height="52" viewBox="0 0 60 52" fill="none" xmlns="http://www.w3.org/2000/svg">
<path d="M57 10.4546C57.009 10.075 56.979 6.6456 53.1 3.3436C49.281 0.0936 45.429 0 45 0H14.988C14.271 0 10.509 0.1638 6.864 3.3852C3.108 6.7028 3 10.0334 3 10.4V18.2H0V26H3V41.6C3 43.5084 4.218 45.1698 6 46.0746V49.4C6 50.0896 6.31607 50.7509 6.87868 51.2385C7.44129 51.7261 8.20435 52 9 52H12C12.7956 52 13.5587 51.7261 14.1213 51.2385C14.6839 50.7509 15 50.0896 15 49.4V46.8H45V49.4C45 50.0896 45.3161 50.7509 45.8787 51.2385C46.4413 51.7261 47.2043 52 48 52H51C51.7957 52 52.5587 51.7261 53.1213 51.2385C53.6839 50.7509 54 50.0896 54 49.4V46.0798C54.9102 45.6274 55.6667 44.9751 56.1934 44.1887C56.7201 43.4022 56.9983 42.5093 57 41.6V26H60V18.2H57V10.4546ZM21 5.2H39V10.4H21V5.2ZM13.5 41.6C12.3061 41.5997 11.1613 41.1883 10.3174 40.4564C9.47348 39.7245 8.9996 38.7321 9 37.6974C9.0004 36.6627 9.47504 35.6705 10.3195 34.9391C11.164 34.2078 12.3091 33.7971 13.503 33.7974C14.6969 33.7977 15.8417 34.2091 16.6856 34.941C17.5295 35.6729 18.0034 36.6653 18.003 37.7C18.0026 38.7347 17.528 39.7269 16.6835 40.4583C15.839 41.1896 14.6939 41.6003 13.5 41.6ZM27 28.6H9V15.6H27V28.6ZM46.5 41.6C45.3061 41.5997 44.1613 41.1883 43.3174 40.4564C42.4735 39.7245 41.9996 38.7321 42 37.6974C42.0004 36.6627 42.475 35.6705 43.3195 34.9391C44.164 34.2078 45.3091 33.7971 46.503 33.7974C47.6969 33.7977 48.8417 34.2091 49.6856 34.941C50.5295 35.6729 51.0034 36.6653 51.003 37.7C51.0026 38.7347 50.528 39.7269 49.6835 40.4583C48.839 41.1896 47.6939 41.6003 46.5 41.6ZM51 28.6H33V15.6H51V28.6Z" fill="#00B1FF"/>
</svg>
