<svg width="117" height="234" viewBox="0 0 117 234" fill="none" xmlns="http://www.w3.org/2000/svg">
<g filter="url(#filter0_d_31_46)">
<path fill-rule="evenodd" clip-rule="evenodd" d="M98.0018 1.22872C102.441 2.4502 106.236 4.51935 108.906 7.17442C111.575 9.8295 113 12.9512 113 16.1446V209.857C113 214.139 110.441 218.245 105.886 221.272C101.331 224.299 95.1532 226 88.7115 226C82.2697 226 76.0919 224.299 71.5369 221.272C66.9819 218.245 64.4229 214.139 64.4229 209.857V55.1131L45.1621 67.9143C40.5812 70.8548 34.4459 72.4819 28.0775 72.4452C21.7091 72.4084 15.6172 70.7107 11.1139 67.7177C6.61065 64.7247 4.05626 60.6759 4.00092 56.4433C3.94558 52.2107 6.39373 48.1331 10.8181 45.0885L71.5395 4.73169C74.9361 2.4728 79.2645 0.934244 83.9771 0.3107C88.6897 -0.312845 93.5747 0.00663893 98.014 1.22872H98.0018Z" fill="#563D85" fill-opacity="0.2" shape-rendering="crispEdges"/>
</g>
<defs>
<filter id="filter0_d_31_46" x="0" y="0" width="117" height="234" filterUnits="userSpaceOnUse" color-interpolation-filters="sRGB">
<feFlood flood-opacity="0" result="BackgroundImageFix"/>
<feColorMatrix in="SourceAlpha" type="matrix" values="0 0 0 0 0 0 0 0 0 0 0 0 0 0 0 0 0 0 127 0" result="hardAlpha"/>
<feOffset dy="4"/>
<feGaussianBlur stdDeviation="2"/>
<feComposite in2="hardAlpha" operator="out"/>
<feColorMatrix type="matrix" values="0 0 0 0 0 0 0 0 0 0 0 0 0 0 0 0 0 0 0.25 0"/>
<feBlend mode="normal" in2="BackgroundImageFix" result="effect1_dropShadow_31_46"/>
<feBlend mode="normal" in="SourceGraphic" in2="effect1_dropShadow_31_46" result="shape"/>
</filter>
</defs>
</svg>
