<svg width="50" height="26" viewBox="0 0 50 26" fill="none" xmlns="http://www.w3.org/2000/svg">
<path d="M48.9049 20.4569L37.7127 15.1925C37.1836 14.9437 36.4788 14.8058 35.7471 14.808C35.0153 14.8101 34.3139 14.9521 33.7909 15.2039L26.8761 18.5328C25.2611 18.3603 22.0241 17.8198 18.7496 16.1303C15.4753 14.4351 14.54 12.8132 14.2788 12.0165L21.3748 8.78283C21.9126 8.53854 22.2363 8.20085 22.2771 7.84122C22.318 7.4816 22.0729 7.12826 21.5937 6.85598L11.4698 1.0942C10.9905 0.821083 10.3137 0.650675 9.58309 0.619166C8.85252 0.587657 8.12576 0.697529 7.55717 0.925447L1.31284 3.43023C0.813566 3.66479 0.506607 3.98136 0.450192 4.3199C0.390349 4.66595 -0.831913 12.8657 11.7818 19.3932C22.786 25.084 36.9023 25.6639 40.7958 25.7117C41.3649 25.7187 41.7146 25.7147 41.8077 25.713C42.4975 25.7025 43.1551 25.5668 43.6538 25.332L49.0466 22.3868C49.5394 22.1196 49.8004 21.7682 49.7739 21.4076C49.7475 21.0471 49.4356 20.7059 48.9049 20.4569Z" fill="white"/>
</svg>
