<svg width="50" height="25" viewBox="0 0 50 25" fill="none" xmlns="http://www.w3.org/2000/svg">
<path d="M49.6824 12.3739V12.3678C49.6824 8.72135 46.4846 5.44666 41.4067 3.19474L41.3819 3.18447C41.3192 3.1509 41.2491 3.12094 41.173 3.09513L41.1689 3.0941C36.6589 1.12819 30.8591 0.0467072 24.8574 0.0525135C18.586 0.0525135 12.8607 1.20877 8.49635 3.11669L8.52324 3.1054C8.47064 3.12521 8.42214 3.14757 8.37845 3.17214C5.75474 4.32552 3.65462 5.74352 2.21721 7.33024C0.779804 8.91696 0.0379245 10.6372 0.0407183 12.377C0.0407183 16.0224 3.23433 19.2971 8.30813 21.55L8.33295 21.5603C8.39865 21.5973 8.47215 21.6307 8.5522 21.6599L8.55634 21.6609C13.0651 23.6239 18.8605 24.7038 24.8574 24.6984C30.8824 24.703 36.7026 23.6131 41.2206 21.6342L41.1937 21.6455C43.8629 20.4934 46.0025 19.0702 47.4677 17.472C48.9329 15.8738 49.6896 14.1381 49.6865 12.3821V12.375L49.6824 12.3739ZM40.4532 20.3886C39.2236 19.8949 37.9014 19.4609 36.5046 19.0927L36.3702 19.0599C37.6381 17.2454 38.4013 15.1537 38.4737 12.9777V12.9613H47.2872C46.99 15.7764 44.5494 18.4302 40.4594 20.3856L40.4532 20.3886ZM26.0447 18.8432C28.6984 18.9141 31.1785 19.2036 33.4661 19.675L33.3172 19.6483C31.4846 21.7226 28.9053 23.1478 26.0447 23.461V18.8432ZM26.0447 17.6685V12.9613H36.1137C36.0338 14.9106 35.353 16.8423 34.0949 18.6892L34.1756 18.5547C31.6076 18.0307 28.8763 17.7312 26.1026 17.6695L26.0468 17.6685H26.0447ZM26.0447 11.7866V7.07938C28.8932 7.01484 31.6976 6.70527 34.3328 6.16444L34.1694 6.19422C35.3173 7.85673 36.0227 9.77286 36.1137 11.765V11.7866H26.0447ZM26.0447 5.90465V1.28886C28.9053 1.60206 31.4846 3.02119 33.3172 5.10163C31.1785 5.54319 28.6984 5.83174 26.1047 5.90362L26.0447 5.90465ZM31.9479 1.79717C34.3852 2.20076 36.6647 2.80931 38.6868 3.59624L38.6392 3.57776C37.7229 3.93511 36.6949 4.27192 35.6111 4.56458L35.4952 4.59333C34.6194 3.56721 33.4152 2.61812 31.9293 1.78279L31.9479 1.79409V1.79717ZM23.6743 1.29195V5.90465C21.1229 5.84003 18.6127 5.5587 16.2529 5.07288L16.4018 5.09958C18.2427 3.0253 20.8178 1.60103 23.6784 1.28784L23.6743 1.29195ZM14.2258 4.59025C13.1046 4.29077 12.0363 3.94486 11.0322 3.55619L11.0819 3.57468C13.045 2.81084 15.2532 2.21654 17.6139 1.81668L17.7711 1.79306C16.3241 2.60576 15.145 3.52694 14.2775 4.52248L14.2258 4.59025ZM23.6784 7.07836V11.7855H13.6094C13.7005 9.77184 14.4058 7.8557 15.6344 6.05868L15.5537 6.1932C18.1208 6.71636 20.8505 7.01546 23.6226 7.07733L23.6784 7.07836ZM23.6784 12.9603V17.6674C20.8299 17.732 18.0256 18.0416 15.3903 18.5824L15.5537 18.5526C14.4058 16.8911 13.7005 14.974 13.6094 12.9818V12.9603H23.6784ZM23.6784 18.8422V23.458C20.8178 23.1448 18.2385 21.7256 16.4059 19.6452C18.5447 19.2036 21.0247 18.9161 23.6185 18.8442L23.6784 18.8422ZM17.7835 22.9497C15.3468 22.5472 13.0674 21.9401 11.0446 21.1547L11.0943 21.1732C12.0106 20.8158 13.0386 20.479 14.1224 20.1864L14.2382 20.1576C15.1067 21.1841 16.3109 22.1324 17.8021 22.964L17.7835 22.9538V22.9497ZM35.4973 20.1566C36.697 20.48 37.725 20.8158 38.6909 21.1906L38.6413 21.1722C36.6781 21.936 34.4699 22.5303 32.1092 22.9302L31.952 22.9538C33.3991 22.1414 34.5781 21.2206 35.4456 20.2254L35.4973 20.1586V20.1566ZM47.2872 11.7866H38.4737C38.4103 9.66191 37.6718 7.55555 36.2854 5.54524L36.3702 5.68695C37.8313 5.30502 39.2146 4.85383 40.5008 4.3397L40.4511 4.35818C44.5326 6.30618 46.9741 8.95018 47.2831 11.7568L47.2851 11.7855L47.2872 11.7866ZM9.26993 4.35921C10.4613 4.83978 11.7996 5.28031 13.2185 5.65512L13.353 5.68798C12.085 7.50246 11.3218 9.59419 11.2494 11.7701V11.7866H2.43386C2.73107 8.9715 5.1717 6.31766 9.26166 4.36229L9.26993 4.35921ZM2.43593 12.9613H11.2494C11.3128 15.0859 12.0513 17.1923 13.4378 19.2026L13.353 19.0609C11.7996 19.4706 10.4634 19.9112 9.22236 20.4082L9.272 20.3897C5.1905 18.4417 2.74901 15.7977 2.44007 12.9911L2.438 12.9623L2.43593 12.9613Z" fill="white"/>
</svg>
