<svg width="28" height="30" viewBox="0 0 28 30" fill="none" xmlns="http://www.w3.org/2000/svg">
<path d="M14 0C15.8565 0 17.637 0.790176 18.9497 2.1967C20.2625 3.60322 21 5.51088 21 7.5C21 9.48912 20.2625 11.3968 18.9497 12.8033C17.637 14.2098 15.8565 15 14 15C12.1435 15 10.363 14.2098 9.05025 12.8033C7.7375 11.3968 7 9.48912 7 7.5C7 5.51088 7.7375 3.60322 9.05025 2.1967C10.363 0.790176 12.1435 0 14 0ZM14 18.75C21.735 18.75 28 22.1063 28 26.25V30H0V26.25C0 22.1063 6.265 18.75 14 18.75Z" fill="#563D85"/>
</svg>
