<svg width="46" height="54" viewBox="0 0 46 54" fill="none" xmlns="http://www.w3.org/2000/svg">
<g filter="url(#filter0_d_2_6)">
<path d="M24.5976 43.8081L24.5938 43.815C24.1861 44.5508 23.5144 45.0753 22.7264 45.273C21.9384 45.4708 21.0987 45.3256 20.3918 44.8695L20.383 44.8638L6.14532 35.6733C5.44456 35.2155 4.93421 34.4877 4.72576 33.6488C4.5173 32.8099 4.62768 31.9281 5.03279 31.196L5.04041 31.1822L21.1877 2.02945L21.1953 2.01568C21.6007 1.28375 22.2678 0.761151 23.051 0.562026C23.8341 0.362902 24.6696 0.50344 25.3749 0.952939L39.6126 10.1435L39.6192 10.1478C40.3259 10.6041 40.8418 11.334 41.0533 12.1769C41.2649 13.0199 41.1548 13.9069 40.7473 14.6429L40.7422 14.652L24.5976 43.8081ZM36.5687 18.0945L36.8332 18.2652C37.0515 18.4061 37.333 18.3354 37.4588 18.1082C37.5847 17.881 37.5091 17.5798 37.2909 17.439L37.0264 17.2682C36.8081 17.1273 36.5266 17.198 36.4008 17.4252C36.2749 17.6524 36.3505 17.9536 36.5687 18.0945ZM34.7166 16.8974L34.9811 17.0681C35.1994 17.209 35.4809 17.1383 35.6067 16.9111C35.7326 16.6839 35.657 16.3827 35.4388 16.2419L35.1743 16.0711C34.956 15.9302 34.6745 16.0009 34.5487 16.2281C34.4228 16.4553 34.4984 16.7565 34.7166 16.8974ZM33.3243 10.0834L36.9504 12.4241C37.1686 12.5649 37.4502 12.4943 37.576 12.2671C37.7019 12.0399 37.6263 11.7387 37.4081 11.5978L33.782 9.25715C33.5637 9.11628 33.2822 9.18693 33.1564 9.41415C33.0305 9.64137 33.1061 9.94253 33.3243 10.0834ZM24.2844 6.68459L35.9563 14.2189C36.1745 14.3597 36.4561 14.2891 36.5819 14.0619C36.7078 13.8347 36.6322 13.5335 36.414 13.3926L24.7421 5.85834C24.5239 5.71747 24.2423 5.78812 24.1165 6.01534C23.9906 6.24256 24.0662 6.54372 24.2844 6.68459ZM27.2213 24.2166C27.7198 24.4343 28.2693 24.4594 28.7719 24.2873C29.2744 24.1152 29.6973 23.7572 29.9651 23.2771L29.974 23.261C30.2345 22.778 30.3255 22.2084 30.2312 21.6501C30.1369 21.0917 29.8633 20.5794 29.4573 20.2012L29.4458 20.1923L29.8577 19.4486C30.1281 18.9588 30.2012 18.369 30.0608 17.8083C29.9204 17.2476 29.5781 16.7617 29.1088 16.457L26.4394 14.7339C25.456 14.1024 24.2893 13.9022 23.1944 14.177C22.0995 14.4517 21.1656 15.1792 20.5969 16.2001L12.1114 31.5201C12.0538 31.6302 12.039 31.7609 12.0702 31.8852C12.1014 32.0095 12.1761 32.1177 12.2789 32.1875L19.6369 36.9372C19.7425 37.0019 19.8662 37.0217 19.9824 36.9926C20.0986 36.9634 20.1983 36.8875 20.2608 36.7806L22.3533 33.0028C22.8519 33.2218 23.4022 33.2474 23.9053 33.0752C24.4085 32.9029 24.8316 32.544 25.0988 32.0628L25.1064 32.0491C25.3673 31.5659 25.4586 30.996 25.3646 30.4372C25.2705 29.8785 24.997 29.3657 24.591 28.987L24.5795 28.978L27.2213 24.2166ZM23.3079 34.7828C23.3364 34.7316 23.3549 34.6746 23.3624 34.6151C23.3698 34.5556 23.366 34.4947 23.3513 34.436C23.3366 34.3773 23.3111 34.3218 23.2765 34.2729C23.2418 34.224 23.1986 34.1824 23.1493 34.1507L23.1273 34.1365C23.0207 34.0708 22.8955 34.051 22.7783 34.0811C22.661 34.1113 22.5609 34.1891 22.4991 34.2981L19.8445 38.8315C19.7186 39.0588 19.7942 39.3599 20.0124 39.5008C20.2307 39.6417 20.5122 39.571 20.638 39.3438L23.3079 34.7828ZM26.4704 28.0332C26.576 28.0979 26.6997 28.1177 26.8159 28.0886C26.9321 28.0594 27.0318 27.9835 27.0943 27.8766L28.3159 25.671C28.4418 25.4438 28.3662 25.1426 28.148 25.0018C27.9298 24.8609 27.6482 24.9315 27.5224 25.1588L26.3007 27.3644C26.242 27.4758 26.2274 27.6086 26.26 27.7345C26.2926 27.8603 26.3698 27.9692 26.4753 28.0379L26.4704 28.0332ZM32.8694 15.705L33.1339 15.8757C33.3522 16.0166 33.6337 15.9459 33.7595 15.7187C33.8854 15.4915 33.8098 15.1903 33.5916 15.0495L33.3271 14.8787C33.1088 14.7378 32.8273 14.8085 32.7015 15.0357C32.5756 15.2629 32.6512 15.5641 32.8694 15.705ZM31.0156 14.5083L31.2801 14.679C31.4983 14.8199 31.7798 14.7493 31.9057 14.522C32.0315 14.2948 31.956 13.9937 31.7377 13.8528L31.4732 13.682C31.255 13.5412 30.9735 13.6118 30.8476 13.839C30.7218 14.0663 30.7973 14.3674 31.0156 14.5083ZM29.1639 13.3131L29.4285 13.4838C29.6467 13.6247 29.9282 13.554 30.0541 13.3268C30.1799 13.0996 30.1043 12.7984 29.8861 12.6576L29.6216 12.4868C29.4034 12.3459 29.1218 12.4166 28.996 12.6438C28.8701 12.871 28.9457 13.1722 29.1639 13.3131ZM27.3123 12.1178L27.5768 12.2886C27.7951 12.4294 28.0766 12.3588 28.2024 12.1316C28.3283 11.9043 28.2527 11.6032 28.0345 11.4623L27.7722 11.293C27.5539 11.1521 27.2724 11.2228 27.1466 11.45C27.0207 11.6772 27.0963 11.9784 27.3145 12.1192L27.3123 12.1178ZM27.957 6.73714L28.9886 7.40306C29.2068 7.54393 29.4884 7.47328 29.6142 7.24606C29.7401 7.01884 29.6645 6.71768 29.4463 6.57682L28.4146 5.9109C28.1964 5.77003 27.9149 5.84068 27.789 6.0679C27.6632 6.29511 27.7388 6.59628 27.957 6.73714ZM12.7626 35.7931L12.7692 35.7973C12.8204 35.8305 12.877 35.8528 12.9356 35.863C12.9943 35.8732 13.0539 35.871 13.1111 35.8567C13.1682 35.8423 13.2218 35.8161 13.2687 35.7794C13.3156 35.7427 13.3549 35.6964 13.3844 35.6429L13.3882 35.6361L13.9221 34.6721C14.048 34.4449 13.9724 34.1437 13.7542 34.0029C13.5359 33.862 13.2544 33.9326 13.1286 34.1599L12.5946 35.1238C12.537 35.2342 12.5222 35.3653 12.5535 35.4898C12.5848 35.6144 12.6596 35.723 12.7626 35.7931ZM25.4602 10.9207L25.7247 11.0915C25.943 11.2323 26.2245 11.1617 26.3503 10.9345C26.4762 10.7072 26.4006 10.4061 26.1824 10.2652L25.9179 10.0945C25.6996 9.9536 25.4181 10.0243 25.2923 10.2515C25.1664 10.4787 25.242 10.7798 25.4602 10.9207ZM10.6067 35.3362L10.6134 35.3404C10.6646 35.3736 10.7211 35.3959 10.7798 35.4061C10.8385 35.4163 10.8981 35.4141 10.9552 35.3998C11.0124 35.3854 11.0659 35.3592 11.1128 35.3225C11.1597 35.2858 11.199 35.2395 11.2285 35.186L11.2323 35.1792L12.1489 33.5244C12.2748 33.2972 12.1992 32.996 11.981 32.8551C11.7627 32.7143 11.4812 32.7849 11.3554 33.0121L10.4388 34.6669C10.3811 34.7773 10.3664 34.9084 10.3976 35.0329C10.4289 35.1575 10.5038 35.2661 10.6067 35.3362ZM25.3113 5.0278L26.3452 5.69514C26.5634 5.83601 26.8449 5.76536 26.9708 5.53814C27.0966 5.31092 27.021 5.00976 26.8028 4.86889L25.769 4.20155C25.5508 4.06068 25.2692 4.13133 25.1434 4.35855C25.0175 4.58577 25.0931 4.88693 25.3113 5.0278ZM23.6069 9.72591L23.8714 9.89666C24.0896 10.0375 24.3711 9.96688 24.497 9.73966C24.6228 9.51244 24.5473 9.21128 24.329 9.07041L24.0645 8.89966C23.8463 8.7588 23.5648 8.82945 23.4389 9.05666C23.3131 9.28388 23.3886 9.58504 23.6069 9.72591ZM21.7552 8.53067L22.0198 8.70142C22.238 8.84229 22.5195 8.77164 22.6454 8.54442C22.7712 8.3172 22.6956 8.01604 22.4774 7.87517L22.2107 7.703C21.9924 7.56213 21.7109 7.63278 21.5851 7.86C21.4592 8.08722 21.5348 8.38838 21.753 8.52925L21.7552 8.53067ZM19.9019 7.33587L20.1664 7.50662C20.3846 7.64748 20.6661 7.57683 20.792 7.34962C20.9178 7.1224 20.8423 6.82124 20.624 6.68037L20.3573 6.5082C20.1391 6.36733 19.8576 6.43798 19.7317 6.6652C19.6059 6.89242 19.6814 7.19358 19.8997 7.33444L19.9019 7.33587ZM27.3498 23.139L27.244 23.0707C27.1911 23.0366 27.1535 22.9749 27.1006 22.9407C27.0741 22.9236 27.0629 22.879 27.0365 22.8619C26.9988 22.8003 26.9724 22.7832 26.9343 22.7196C26.9231 22.675 26.8966 22.6579 26.885 22.6115C26.8491 22.5812 26.8227 22.5402 26.8093 22.4941C26.7813 22.4476 26.7609 22.3965 26.7493 22.3432C26.7381 22.2986 26.7116 22.2815 26.7004 22.2369C26.6651 22.1847 26.6491 22.121 26.6556 22.0584L26.6552 22.0565C26.644 22.0119 26.6175 21.9948 26.6328 21.9673C26.6236 21.9059 26.6223 21.8438 26.6289 21.7825L26.6297 21.7784C26.645 21.7508 26.6185 21.7338 26.6338 21.7062C26.6378 21.6341 26.6683 21.579 26.6724 21.5068C26.6612 21.4622 26.6612 21.4622 26.6764 21.4347C26.732 21.2454 26.8278 21.0734 26.9566 20.9316L26.951 20.9389C26.9927 20.9284 26.9927 20.9284 27.008 20.9009C27.065 20.8629 27.0955 20.8078 27.1524 20.7698C27.1677 20.7423 27.1941 20.7593 27.2094 20.7318C27.2639 20.7116 27.3153 20.6834 27.362 20.648L27.365 20.6453L27.4484 20.6244C27.5166 20.631 27.5753 20.5925 27.6153 20.5825C27.6552 20.5725 27.6834 20.5891 27.7269 20.5782C27.7781 20.5829 27.8294 20.578 27.8784 20.5639C27.9201 20.5534 27.973 20.5876 28.0165 20.5767C28.0599 20.5658 28.0846 20.5833 28.1281 20.5724C28.1715 20.5615 28.2227 20.5961 28.2909 20.6027C28.3173 20.6197 28.359 20.6093 28.3855 20.6263C28.4249 20.6395 28.4663 20.6433 28.5067 20.6372C28.547 20.6312 28.5853 20.6156 28.6187 20.5915L28.7263 20.6594C29.0135 20.8756 29.2164 21.1966 29.2944 21.5578C29.3724 21.9191 29.3196 22.294 29.1467 22.6072C28.9738 22.9204 28.6935 23.1489 28.362 23.2467C28.0306 23.3445 27.6726 23.3044 27.3598 23.1345L27.3554 23.1317L27.3498 23.139ZM27.6549 22.5882C27.81 22.686 27.9931 22.7166 28.165 22.6735C28.3368 22.6304 28.4837 22.5169 28.5742 22.3575L28.5912 22.3295C28.6345 22.2509 28.662 22.1632 28.6721 22.0719C28.6821 21.9805 28.6745 21.8874 28.6497 21.7981C28.6248 21.7088 28.5833 21.6252 28.5276 21.5523C28.4719 21.4795 28.4032 21.419 28.3257 21.3745L28.3279 21.3759C28.2515 21.3266 28.1671 21.2934 28.0797 21.2783C27.9922 21.2631 27.9033 21.2664 27.8181 21.2877C27.7329 21.3091 27.653 21.3483 27.5831 21.4029C27.5131 21.4575 27.4544 21.5266 27.4104 21.6062C27.3663 21.6857 27.3377 21.7742 27.3262 21.8666C27.3147 21.959 27.3206 22.0535 27.3435 22.1446C27.3664 22.2358 27.4058 22.3218 27.4595 22.3979C27.5133 22.4739 27.5785 22.5388 27.6549 22.5882ZM22.4658 31.9569L22.3599 31.8886C22.307 31.8545 22.2694 31.7928 22.2165 31.7586C22.19 31.7415 22.1788 31.6969 22.1524 31.6798C22.1412 31.6352 22.0883 31.6011 22.0506 31.5394C22.0394 31.4948 22.013 31.4777 22.0013 31.4312C21.9648 31.3992 21.9384 31.356 21.926 31.3078C21.8962 31.2616 21.8756 31.2095 21.8655 31.1551C21.8391 31.138 21.8279 31.0934 21.8167 31.0487C21.779 30.9871 21.7848 30.9145 21.7719 30.8703L21.7495 30.781C21.7403 30.7197 21.739 30.6575 21.7456 30.5963L21.7464 30.5921C21.7617 30.5646 21.7352 30.5475 21.7505 30.52C21.7545 30.4478 21.785 30.3927 21.7891 30.3206C21.7779 30.2759 21.7779 30.2759 21.7932 30.2484C21.8487 30.0591 21.9445 29.8871 22.0733 29.7453L22.0677 29.7526C22.1094 29.7422 22.1094 29.7422 22.1247 29.7146C22.1817 29.6766 22.2122 29.6216 22.2691 29.5835C22.2844 29.556 22.3108 29.5731 22.3261 29.5455C22.3805 29.5252 22.4319 29.497 22.4787 29.4618L22.4817 29.4591L22.732 29.3963C22.7737 29.3858 22.8001 29.4029 22.8418 29.3924C22.8835 29.3819 22.9512 29.3867 22.9951 29.3776C23.0391 29.3686 23.0897 29.4013 23.1315 29.3908C23.1732 29.3804 23.1996 29.3975 23.2431 29.3866C23.2865 29.3756 23.3377 29.4102 23.4058 29.4168C23.4323 29.4339 23.474 29.4235 23.5004 29.4405C23.5398 29.4537 23.5813 29.4574 23.6216 29.4514C23.662 29.4454 23.7003 29.4298 23.7337 29.4057L23.8412 29.4736C24.1284 29.6898 24.3314 30.0107 24.4094 30.372C24.4874 30.7333 24.4346 31.1082 24.2617 31.4214C24.0887 31.7346 23.8084 31.9631 23.477 32.0609C23.1456 32.1587 22.7876 32.1186 22.4748 31.9487L22.4704 31.9459L22.4658 31.9569ZM22.7708 31.4061C22.9259 31.5039 23.109 31.5345 23.2809 31.4914C23.4527 31.4483 23.5996 31.3348 23.6901 31.1754L23.6965 31.1639C23.7398 31.086 23.7679 30.9993 23.7792 30.9089C23.7905 30.8184 23.7848 30.7258 23.7624 30.6365C23.74 30.5472 23.7013 30.463 23.6486 30.3885C23.5959 30.3141 23.5302 30.251 23.4553 30.2028L23.4421 30.1942C23.2877 30.0946 23.1043 30.0629 22.9323 30.1061C22.7602 30.1493 22.6135 30.2638 22.5245 30.4245C22.4355 30.5852 22.4115 30.7789 22.4577 30.963C22.5038 31.1471 22.6165 31.3064 22.7708 31.4061ZM28.6235 19.7347C28.5061 19.6933 28.3848 19.6673 28.2624 19.6573L28.272 19.6589C28.1595 19.6247 28.0426 19.6138 27.9277 19.6267L27.9312 19.6258C27.9047 19.6088 27.8895 19.6363 27.863 19.6192C27.7536 19.6249 27.6697 19.644 27.5599 19.6479L27.4747 19.6692C27.3741 19.6708 27.2757 19.6955 27.1863 19.7416L27.1828 19.7425C27.1563 19.7254 27.1411 19.753 27.0994 19.7634C27.0165 19.7855 26.9375 19.8207 26.8651 19.8677L26.8603 19.8709C26.8451 19.8984 26.8186 19.8813 26.8034 19.9089C26.7311 19.9744 26.6325 20.0229 26.5585 20.0889C26.5433 20.1164 26.5016 20.1269 26.4863 20.1544C26.4141 20.22 26.3266 20.3131 26.2527 20.3791L26.2222 20.4341C26.062 20.6334 25.9361 20.8615 25.8502 21.1085L25.856 21.0951L25.823 21.1548C25.8037 21.2545 25.7691 21.3818 25.7503 21.4833C25.735 21.5109 25.7462 21.5555 25.731 21.583C25.7064 21.6877 25.6963 21.796 25.7009 21.9048L25.7012 21.8987C25.6859 21.9263 25.7124 21.9434 25.6971 21.9709C25.7195 22.0601 25.7002 22.1598 25.7226 22.2491C25.7491 22.2661 25.7338 22.2937 25.7433 22.3387L25.8217 22.6511C25.8064 22.6786 25.8329 22.6957 25.8458 22.7399C25.8929 22.8466 25.917 22.9354 25.9659 23.0417C25.9923 23.0588 25.9771 23.0863 26.0035 23.1034C26.0426 23.2003 26.0948 23.2979 26.16 23.3882L26.1653 23.3948C26.2249 23.5046 26.3009 23.6037 26.3904 23.6881L26.3953 23.6928L23.7269 28.5102C23.6094 28.4683 23.488 28.4417 23.3653 28.4311L23.3749 28.4326C23.2697 28.4125 23.1628 28.4074 23.0571 28.4175L23.0606 28.4166C23.0342 28.3995 23.0189 28.4271 22.9924 28.41C22.8899 28.4099 22.7879 28.4196 22.6876 28.4391L22.6893 28.4387C22.674 28.4662 22.6476 28.4491 22.6041 28.46C22.5055 28.4729 22.4088 28.4972 22.3157 28.5324L22.3122 28.5333C22.2858 28.5162 22.2705 28.5438 22.2288 28.5542C22.1459 28.5763 22.0669 28.6115 21.9945 28.6585L21.9897 28.6617C21.9745 28.6892 21.948 28.6721 21.9328 28.6997C21.8606 28.7652 21.7619 28.8137 21.6879 28.8797C21.6727 28.9072 21.631 28.9177 21.6157 28.9452C21.5435 29.0108 21.456 29.1039 21.3821 29.1699L21.3503 29.2272C21.1901 29.4265 21.0643 29.6546 20.9783 29.9016L20.9842 29.8882L20.9562 29.9387C20.9369 30.0384 20.9023 30.1657 20.8835 30.2672C20.8682 30.2948 20.8794 30.3394 20.8642 30.3669C20.8396 30.4716 20.8295 30.58 20.8341 30.6887L20.8344 30.6827C20.8192 30.7102 20.8456 30.7273 20.8304 30.7548C20.8458 30.8458 20.8352 30.9433 20.8593 31.0321C20.8858 31.0492 20.8705 31.0767 20.8817 31.1213L20.9601 31.4337C20.9448 31.4612 20.9713 31.4783 20.9842 31.5225C21.0313 31.6292 21.0555 31.718 21.1043 31.8243C21.1308 31.8414 21.1155 31.8689 21.142 31.886C21.1893 31.9789 21.2516 32.0798 21.3191 32.1795L21.3307 32.1963C21.3865 32.3009 21.4619 32.4025 21.554 32.49L21.5589 32.4947L19.6953 35.8594L16.8892 34.048L25.801 17.961L27.5792 16.6334L28.6373 17.3164L28.6395 17.3178C28.7678 17.4005 28.8803 17.5088 28.9706 17.6363C29.0608 17.7639 29.127 17.9083 29.1654 18.0613C29.2038 18.2142 29.2136 18.3728 29.1943 18.5279C29.175 18.6829 29.1269 18.8314 29.0528 18.9649L29.0516 18.9672L28.6235 19.7347ZM25.1993 17.2267C25.1576 17.2372 25.1575 17.2372 25.1423 17.2647L22.4685 15.5388C22.9819 15.1964 23.5795 15.0153 24.1946 15.0159C24.8096 15.0165 25.4179 15.1987 25.9513 15.5421L25.9535 15.5435L26.7206 16.0387L25.1993 17.2267ZM23.4683 20.2222L20.5057 18.3098L21.3905 16.7124C21.5042 16.5178 21.6278 16.3406 21.7643 16.1779L21.749 16.1975L24.6587 18.0758L23.4683 20.2222ZM16.0812 33.5592L13.1185 31.6468L14.0351 29.992L16.9999 31.9058L16.0812 33.5592ZM20.5252 25.4683L17.5626 23.5559L20.0199 19.1194L22.9847 21.0332L20.5252 25.4683ZM17.4251 31.068L14.4625 29.1556L17.1029 24.3886L20.0677 26.3024L17.4251 31.068Z" fill="#563D85"/>
</g>
<defs>
<filter id="filter0_d_2_6" x="0.622681" y="0.473694" width="44.5359" height="52.8857" filterUnits="userSpaceOnUse" color-interpolation-filters="sRGB">
<feFlood flood-opacity="0" result="BackgroundImageFix"/>
<feColorMatrix in="SourceAlpha" type="matrix" values="0 0 0 0 0 0 0 0 0 0 0 0 0 0 0 0 0 0 127 0" result="hardAlpha"/>
<feOffset dy="4"/>
<feGaussianBlur stdDeviation="2"/>
<feComposite in2="hardAlpha" operator="out"/>
<feColorMatrix type="matrix" values="0 0 0 0 0 0 0 0 0 0 0 0 0 0 0 0 0 0 0.25 0"/>
<feBlend mode="normal" in2="BackgroundImageFix" result="effect1_dropShadow_2_6"/>
<feBlend mode="normal" in="SourceGraphic" in2="effect1_dropShadow_2_6" result="shape"/>
</filter>
</defs>
</svg>
