<svg width="46" height="19" viewBox="0 0 46 19" fill="none" xmlns="http://www.w3.org/2000/svg">
<path d="M39.4784 4.55957L23.2607 10.4849L7.04311 4.55957M5.12967 2.59817C4.58105 2.59817 4.0549 2.70636 3.66697 2.89894C3.27904 3.09153 3.0611 3.35273 3.0611 3.62508V15.2344C3.0611 15.5067 3.27904 15.7679 3.66697 15.9605C4.0549 16.1531 4.58105 16.2613 5.12967 16.2613H41.3918C41.9404 16.2613 42.4666 16.1531 42.8545 15.9605C43.2425 15.7679 43.4604 15.5067 43.4604 15.2344V3.60968C43.4604 3.33732 43.2425 3.07612 42.8545 2.88354C42.4666 2.69096 41.9404 2.58276 41.3918 2.58276H5.12967V2.59817Z" stroke="white" stroke-width="4.16667" stroke-linecap="round" stroke-linejoin="round"/>
</svg>
