<svg width="212" height="225" viewBox="0 0 212 225" fill="none" xmlns="http://www.w3.org/2000/svg">
<g filter="url(#filter0_d_33_50)">
<path fill-rule="evenodd" clip-rule="evenodd" d="M126.4 31C134.735 30.9948 142.873 32.9294 149.717 36.5436C156.562 40.1578 161.786 45.2782 164.685 51.2158C167.585 57.1534 168.022 63.6233 165.936 69.7551C163.851 75.8869 159.344 81.3863 153.022 85.5135L10.2218 190.356C7.29964 192.502 5.2878 195.262 4.44425 198.283C3.60071 201.304 3.96391 204.447 5.48729 207.31C7.01067 210.173 9.62478 212.625 12.9944 214.351C16.3641 216.078 20.3356 217 24.3998 217H187.6C193.01 217 198.199 215.367 202.025 212.46C205.851 209.553 208 205.611 208 201.5C208 197.389 205.851 193.447 202.025 190.54C198.199 187.633 193.01 186 187.6 186H74.8695L181.113 107.996C193.346 99.5952 201.942 88.5752 205.769 76.3885C209.596 64.2017 208.473 51.4199 202.55 39.7274C196.626 28.0349 186.179 17.9804 172.586 10.8885C158.992 3.79673 142.889 0.000478654 126.4 0H85.5999C68.723 0.00132868 52.2615 3.97713 38.4813 11.3802C24.701 18.7832 14.2794 29.2495 8.65101 41.3385C6.96287 45.1925 7.33327 49.396 9.68253 53.0446C12.0318 56.6932 16.1722 59.4954 21.2129 60.8482C26.2535 62.201 31.7917 61.9964 36.6359 60.2783C41.48 58.5603 45.243 55.4661 47.1152 51.6615C49.9324 45.6175 55.1456 40.3855 62.0375 36.6854C68.9294 32.9853 77.1611 30.9991 85.5999 31H126.4Z" fill="#563D85" fill-opacity="0.2" shape-rendering="crispEdges"/>
</g>
<defs>
<filter id="filter0_d_33_50" x="0" y="0" width="212" height="225" filterUnits="userSpaceOnUse" color-interpolation-filters="sRGB">
<feFlood flood-opacity="0" result="BackgroundImageFix"/>
<feColorMatrix in="SourceAlpha" type="matrix" values="0 0 0 0 0 0 0 0 0 0 0 0 0 0 0 0 0 0 127 0" result="hardAlpha"/>
<feOffset dy="4"/>
<feGaussianBlur stdDeviation="2"/>
<feComposite in2="hardAlpha" operator="out"/>
<feColorMatrix type="matrix" values="0 0 0 0 0 0 0 0 0 0 0 0 0 0 0 0 0 0 0.25 0"/>
<feBlend mode="normal" in2="BackgroundImageFix" result="effect1_dropShadow_33_50"/>
<feBlend mode="normal" in="SourceGraphic" in2="effect1_dropShadow_33_50" result="shape"/>
</filter>
</defs>
</svg>
