<svg width="51" height="59" viewBox="0 0 51 59" fill="none" xmlns="http://www.w3.org/2000/svg">
<path d="M2.6112 11.8162C1.0177 13.5487 0.122515 15.8981 0.122515 18.3479C0.122515 20.7977 1.0177 23.1472 2.6112 24.8797L14.3888 37.6845C14.7594 38.0836 15.1538 38.4421 15.5652 38.7525C15.708 38.2942 15.9052 37.8545 16.1568 37.4443C17.4998 35.2529 19.2168 33.6749 21.2024 32.7769C22.0334 32.4 22.907 32.1453 23.8 32.0193V20.1938C23.8002 19.2894 24.004 18.3988 24.3936 17.5997C24.7831 16.8006 25.3467 16.1172 26.0351 15.6091C26.7235 15.1011 27.5158 14.7838 28.3429 14.685C29.17 14.5862 30.0067 14.7089 30.7802 15.0423C31.0132 14.1118 31.4656 13.2635 32.0926 12.5811L23.0112 2.70681C22.2219 1.84866 21.2847 1.16793 20.2533 0.703486C19.2219 0.239046 18.1164 0 17 0C15.8836 0 14.7781 0.239046 13.7467 0.703486C12.7153 1.16793 11.7781 1.84866 10.9888 2.70681L2.6112 11.8162ZM35.7 14.6543C35.2491 14.6543 34.8167 14.849 34.4979 15.1955C34.1791 15.542 34 16.012 34 16.502V34.9794C34 35.4695 33.8209 35.9394 33.5021 36.286C33.1833 36.6325 32.7509 36.8271 32.3 36.8271C31.8491 36.8271 31.4167 36.6325 31.0979 36.286C30.7791 35.9394 30.6 35.4695 30.6 34.9794V20.1975C30.6 19.7074 30.4209 19.2375 30.1021 18.891C29.7833 18.5444 29.3509 18.3498 28.9 18.3498C28.4491 18.3498 28.0167 18.5444 27.6979 18.891C27.3791 19.2375 27.2 19.7074 27.2 20.1975V35.9033C26.85 35.8049 26.4945 35.7308 26.1358 35.6815C24.9066 35.5018 23.6555 35.6764 22.508 36.1878C21.2092 36.7791 20.0022 37.8397 18.9856 39.4953C18.8472 39.7209 18.7561 39.9768 18.7189 40.245C18.6817 40.5131 18.6993 40.7869 18.7703 41.0468C18.8414 41.3068 18.9642 41.5465 19.1301 41.7491C19.296 41.9516 19.5009 42.112 19.7302 42.2188C24.8404 44.5987 27.5162 48.0281 28.9374 50.966C30.787 54.7798 34.3842 59 39.1 59H39.9976C41.5765 58.9996 43.1241 58.5212 44.4668 57.6185C45.8096 56.7158 46.8946 55.4244 47.6 53.8892L49.742 49.2329C50.5697 47.4351 51.0004 45.4523 51 43.442V20.1975C51 19.7074 50.8209 19.2375 50.5021 18.891C50.1833 18.5444 49.7509 18.3498 49.3 18.3498C48.8491 18.3498 48.4167 18.5444 48.0979 18.891C47.7791 19.2375 47.6 19.7074 47.6 20.1975V34.9794C47.6 35.4695 47.4209 35.9394 47.1021 36.286C46.7833 36.6325 46.3509 36.8271 45.9 36.8271C45.4491 36.8271 45.0167 36.6325 44.6979 36.286C44.3791 35.9394 44.2 35.4695 44.2 34.9794V16.502C44.2 16.012 44.0209 15.542 43.7021 15.1955C43.3833 14.849 42.9509 14.6543 42.5 14.6543C42.0491 14.6543 41.6167 14.849 41.2979 15.1955C40.9791 15.542 40.8 16.012 40.8 16.502V34.9794C40.8 35.4695 40.6209 35.9394 40.3021 36.286C39.9833 36.6325 39.5509 36.8271 39.1 36.8271C38.6491 36.8271 38.2167 36.6325 37.8979 36.286C37.5791 35.9394 37.4 35.4695 37.4 34.9794V16.502C37.4 16.012 37.2209 15.542 36.9021 15.1955C36.5833 14.849 36.1509 14.6543 35.7 14.6543ZM5.1 36.8271C5.55087 36.8271 5.98327 37.0218 6.30208 37.3683C6.62089 37.7148 6.8 38.1848 6.8 38.6749V40.5226H8.5C8.95087 40.5226 9.38327 40.7173 9.70208 41.0638C10.0209 41.4103 10.2 41.8803 10.2 42.3704C10.2 42.8604 10.0209 43.3304 9.70208 43.6769C9.38327 44.0234 8.95087 44.2181 8.5 44.2181H6.8V46.0658C6.8 46.5559 6.62089 47.0259 6.30208 47.3724C5.98327 47.7189 5.55087 47.9136 5.1 47.9136C4.64913 47.9136 4.21673 47.7189 3.89792 47.3724C3.57911 47.0259 3.4 46.5559 3.4 46.0658V44.2181H1.7C1.24913 44.2181 0.816731 44.0234 0.497919 43.6769C0.179107 43.3304 0 42.8604 0 42.3704C0 41.8803 0.179107 41.4103 0.497919 41.0638C0.816731 40.7173 1.24913 40.5226 1.7 40.5226H3.4V38.6749C3.4 38.1848 3.57911 37.7148 3.89792 37.3683C4.21673 37.0218 4.64913 36.8271 5.1 36.8271ZM15.3 47.9136C15.7509 47.9136 16.1833 48.1082 16.5021 48.4548C16.8209 48.8013 17 49.2713 17 49.7613V51.609H18.7C19.1509 51.609 19.5833 51.8037 19.9021 52.1502C20.2209 52.4968 20.4 52.9667 20.4 53.4568C20.4 53.9468 20.2209 54.4168 19.9021 54.7633C19.5833 55.1099 19.1509 55.3045 18.7 55.3045H17V57.1523C17 57.6423 16.8209 58.1123 16.5021 58.4588C16.1833 58.8053 15.7509 59 15.3 59C14.8491 59 14.4167 58.8053 14.0979 58.4588C13.7791 58.1123 13.6 57.6423 13.6 57.1523V55.3045H11.9C11.4491 55.3045 11.0167 55.1099 10.6979 54.7633C10.3791 54.4168 10.2 53.9468 10.2 53.4568C10.2 52.9667 10.3791 52.4968 10.6979 52.1502C11.0167 51.8037 11.4491 51.609 11.9 51.609H13.6V49.7613C13.6 49.2713 13.7791 48.8013 14.0979 48.4548C14.4167 48.1082 14.8491 47.9136 15.3 47.9136Z" fill="#00B1FF"/>
</svg>
