<svg width="59" height="37" viewBox="0 0 59 37" fill="none" xmlns="http://www.w3.org/2000/svg">
<path fill-rule="evenodd" clip-rule="evenodd" d="M0 2.775C0 2.03902 0.291377 1.33319 0.810033 0.812778C1.32869 0.292365 2.03214 0 2.76562 0H56.2344C56.9679 0 57.6713 0.292365 58.19 0.812778C58.7086 1.33319 59 2.03902 59 2.775C59 3.51098 58.7086 4.21681 58.19 4.73722C57.6713 5.25764 56.9679 5.55 56.2344 5.55H2.76562C2.03214 5.55 1.32869 5.25764 0.810033 4.73722C0.291377 4.21681 0 3.51098 0 2.775ZM0 18.5C0 17.764 0.291377 17.0582 0.810033 16.5378C1.32869 16.0174 2.03214 15.725 2.76562 15.725H56.2344C56.9679 15.725 57.6713 16.0174 58.19 16.5378C58.7086 17.0582 59 17.764 59 18.5C59 19.236 58.7086 19.9418 58.19 20.4622C57.6713 20.9826 56.9679 21.275 56.2344 21.275H2.76562C2.03214 21.275 1.32869 20.9826 0.810033 20.4622C0.291377 19.9418 0 19.236 0 18.5ZM2.76562 31.45C2.03214 31.45 1.32869 31.7424 0.810033 32.2628C0.291377 32.7832 0 33.489 0 34.225C0 34.961 0.291377 35.6668 0.810033 36.1872C1.32869 36.7076 2.03214 37 2.76562 37H56.2344C56.9679 37 57.6713 36.7076 58.19 36.1872C58.7086 35.6668 59 34.961 59 34.225C59 33.489 58.7086 32.7832 58.19 32.2628C57.6713 31.7424 56.9679 31.45 56.2344 31.45H2.76562Z" fill="black" fill-opacity="0.7"/>
</svg>
