<svg width="64" height="60" viewBox="0 0 64 60" fill="none" xmlns="http://www.w3.org/2000/svg">
<path d="M35.75 58C32 58 29.1875 54.3478 29.1875 54.3478C26.375 50.6957 26.375 48.2609 26.375 44.6087V43.3913L9.5 35.4783V34.8696L19.25 26.7325C20.3011 25.8553 21.6466 25.1453 23.1841 24.6567C24.7217 24.1681 26.4107 23.9138 28.1225 23.913H33.875V28.7826C33.875 30.0741 34.6652 31.3127 36.0717 32.2259C37.4782 33.1391 39.3859 33.6522 41.375 33.6522H52.625M2 51.913C2 49.4783 7.625 47.6522 7.625 47.6522C12.6013 46.0355 16.1113 45.8504 20.75 45.8285M43.25 58H62V2H5.75V25.1304M33.3125 19.0435C33.3125 19.0435 27.3125 16.6087 27.3125 13.5652C27.3125 12.4365 28.0031 11.3539 29.2324 10.5558C30.4617 9.75762 32.129 9.30922 33.8675 9.30922C35.606 9.30922 37.2733 9.75762 38.5026 10.5558C39.7319 11.3539 40.4225 12.4365 40.4225 13.5652C40.4225 16.6087 34.4375 19.0435 34.4375 19.0435H33.3125Z" stroke="#00B1FF" stroke-width="4"/>
</svg>
