<svg width="76" height="65" viewBox="0 0 76 65" fill="none" xmlns="http://www.w3.org/2000/svg">
<g clip-path="url(#clip0_3_30)">
<path d="M37.5775 0.483154C30.03 0.483154 22.6519 2.36265 16.3764 5.88397C10.1008 9.40529 5.20964 14.4103 2.32132 20.266C-0.566992 26.1218 -1.32271 32.5652 0.149744 38.7817C1.62219 44.9981 5.25668 50.7082 10.5936 55.19C15.9305 59.6718 22.7302 62.7239 30.1327 63.9605C37.5352 65.197 45.2081 64.5624 52.1811 62.1368C59.1541 59.7113 65.114 55.6038 69.3072 50.3338C73.5004 45.0638 75.7385 38.8679 75.7385 32.5297C75.7385 24.0304 71.718 15.8793 64.5614 9.86937C57.4048 3.85948 47.6984 0.483154 37.5775 0.483154ZM37.5775 59.9982C31.1082 59.9982 24.7842 58.3872 19.4051 55.3689C14.0261 52.3506 9.83362 48.0606 7.35792 43.0414C4.88222 38.0222 4.23447 32.4992 5.49657 27.1709C6.75867 21.8425 9.87394 16.9481 14.4484 13.1066C19.0229 9.26502 24.8512 6.64891 31.1962 5.58903C37.5412 4.52915 44.118 5.07312 50.0949 7.15214C56.0717 9.23117 61.1802 12.7519 64.7744 17.269C68.3686 21.7862 70.2869 27.0969 70.2869 32.5297C70.2869 39.8148 66.8408 46.8015 60.7066 51.9528C54.5724 57.1042 46.2526 59.9982 37.5775 59.9982Z" fill="black"/>
<path d="M37.7427 53.3142C40.0008 53.3142 41.8314 51.7769 41.8314 49.8806C41.8314 47.9843 40.0008 46.4471 37.7427 46.4471C35.4846 46.4471 33.654 47.9843 33.654 49.8806C33.654 51.7769 35.4846 53.3142 37.7427 53.3142Z" fill="black"/>
<path d="M40.4685 14.4005H36.3798C34.768 14.3975 33.1713 14.6619 31.6815 15.1785C30.1917 15.695 28.8381 16.4537 27.6984 17.4108C26.5586 18.3679 25.6553 19.5046 25.0401 20.7557C24.425 22.0068 24.1101 23.3476 24.1137 24.7012V25.8457H29.5653V24.7012C29.5653 23.1835 30.2833 21.7279 31.5612 20.6547C32.8392 19.5815 34.5725 18.9786 36.3798 18.9786H40.4685C42.2758 18.9786 44.0091 19.5815 45.287 20.6547C46.565 21.7279 47.2829 23.1835 47.2829 24.7012C47.2829 26.2189 46.565 27.6745 45.287 28.7477C44.0091 29.8209 42.2758 30.4238 40.4685 30.4238H35.0169V40.7245H40.4685V35.0019C43.7216 35.0019 46.8415 33.9166 49.1419 31.9849C51.4422 30.0531 52.7345 27.4331 52.7345 24.7012C52.7345 21.9693 51.4422 19.3493 49.1419 17.4175C46.8415 15.4858 43.7216 14.4005 40.4685 14.4005Z" fill="black"/>
</g>
<defs>
<clipPath id="clip0_3_30">
<rect width="75.5588" height="64.0931" fill="white" transform="translate(0.179688 0.483154)"/>
</clipPath>
</defs>
</svg>
