<svg width="85" height="75" viewBox="0 0 85 75" fill="none" xmlns="http://www.w3.org/2000/svg">
<path d="M47.8463 23.5262C46.2102 22.5788 44.3748 21.9178 42.457 21.5835L42.4818 17.7606H36.5102L36.5214 21.6135C35.5788 21.7874 34.642 22.0383 33.7243 22.3782C32.8066 22.7192 31.9521 23.1362 31.157 23.6075L28.04 20.8718L23.8654 24.6018L26.9786 27.3339C25.9057 28.7814 25.1585 30.3996 24.781 32.0983L20.3612 32.1054V37.3531L24.8174 37.3389C25.0128 38.1674 25.2964 38.9981 25.6815 39.8066C26.0686 40.6203 26.5379 41.3759 27.0743 42.0756" stroke="black" stroke-width="7" stroke-linecap="round"/>
<path d="M50.9817 59.2484V55.2015C51.9205 55.035 52.8574 54.7801 53.7731 54.4425C54.6908 54.1008 55.5472 53.6835 56.3481 53.2109L59.5303 55.9981L63.7068 52.2736L60.5227 49.4861C61.5957 48.0383 62.3426 46.4194 62.7221 44.7191L67.0443 44.6954V39.4528L62.6838 39.4765C62.4884 38.6461 62.2086 37.8226 61.8216 37.0113C61.4346 36.1986 60.9652 35.442 60.4288 34.7386L63.4424 32.0547L59.2238 28.3631L56.2139 31.046C54.5778 30.0988 52.7424 29.4377 50.8246 29.1034L50.8494 25.2805H44.8778L44.889 29.1334C43.9464 29.3073 43.0096 29.5581 42.0919 29.898C41.1742 30.2391 40.3197 30.6561 39.5246 31.1274L36.4076 28.3916L32.2329 32.1217L35.3462 34.8538C34.2733 36.3012 33.5261 37.9195 33.1486 39.6181L28.7288 39.6252V44.8729L33.185 44.8587C33.3804 45.6872 33.664 46.5178 34.0491 47.3263C34.4361 48.14 34.9055 48.8956 35.4419 49.5954L32.2463 52.4231L36.4669 56.108L39.6549 53.2891C41.291 54.2421 43.1264 54.9007 45.0461 55.2337L45.0481 59.2465C47.025 59.2598 50.9817 59.2483 50.9817 59.2483L50.9817 59.2484Z" stroke="black" stroke-width="6.99997" stroke-linecap="round"/>
<path d="M47.911 46.6285C50.7541 46.6285 53.059 44.581 53.059 42.0553C53.059 39.5295 50.7541 37.482 47.911 37.482C45.0678 37.482 42.7629 39.5295 42.7629 42.0553C42.7629 44.581 45.0678 46.6285 47.911 46.6285Z" stroke="black" stroke-width="6.99997" stroke-linecap="square"/>
</svg>
