<svg width="32" height="38" viewBox="0 0 32 38" fill="none" xmlns="http://www.w3.org/2000/svg">
<g filter="url(#filter0_d_1_11)">
<path fill-rule="evenodd" clip-rule="evenodd" d="M9.64219 9.07567C10.4086 9.22308 11.1271 9.56242 11.7331 10.0632C12.3391 10.564 12.8137 11.2105 13.1141 11.9447C13.4145 12.6788 13.5314 13.4776 13.4542 14.2693C13.3771 15.061 13.1083 15.8207 12.6721 16.4801L24.7271 26.025C25.1198 25.8175 25.5696 25.7515 26.0036 25.8377C26.4377 25.9238 26.8304 26.1571 27.1181 26.4997C27.4057 26.8422 27.5715 27.2739 27.5883 27.7246C27.6052 28.1753 27.4722 28.6186 27.2109 28.9825C26.9496 29.3464 26.5755 29.6096 26.1491 29.7292C25.7228 29.8488 25.2693 29.818 24.8624 29.6416C24.4554 29.4652 24.1188 29.1537 23.9073 28.7576C23.6958 28.3615 23.6217 27.9041 23.6971 27.4597L11.4364 17.7512C10.8591 18.1548 10.2007 18.4219 9.50934 18.5332C8.81797 18.6444 8.11098 18.5968 7.43989 18.3941C6.7688 18.1913 6.15051 17.8383 5.63006 17.361C5.10961 16.8836 4.70011 16.2938 4.4314 15.6345C4.16269 14.9753 4.04154 14.2632 4.07676 13.5502C4.11199 12.8371 4.30271 12.141 4.63503 11.5127C4.96735 10.8843 5.4329 10.3395 5.99776 9.91794C6.56263 9.49635 7.21257 9.20861 7.90025 9.07567L7.8985 0.993896H9.64132L9.64219 9.07567ZM10.3384 13.7939C10.3384 14.004 10.2979 14.2121 10.219 14.4062C10.1402 14.6003 10.0247 14.7767 9.87903 14.9253C9.73338 15.0738 9.56047 15.1917 9.37016 15.2721C9.17986 15.3525 8.97589 15.3939 8.76991 15.3939C8.56393 15.3939 8.35996 15.3525 8.16966 15.2721C7.97936 15.1917 7.80644 15.0738 7.66079 14.9253C7.51514 14.7767 7.3996 14.6003 7.32077 14.4062C7.24195 14.2121 7.20138 14.004 7.20138 13.7939C7.20138 13.3695 7.36663 12.9626 7.66079 12.6625C7.95495 12.3625 8.35391 12.1939 8.76991 12.1939C9.18591 12.1939 9.58488 12.3625 9.87903 12.6625C10.1732 12.9626 10.3384 13.3695 10.3384 13.7939Z" fill="#563D85"/>
</g>
<defs>
<filter id="filter0_d_1_11" x="0.0708008" y="0.993896" width="31.5189" height="36.8069" filterUnits="userSpaceOnUse" color-interpolation-filters="sRGB">
<feFlood flood-opacity="0" result="BackgroundImageFix"/>
<feColorMatrix in="SourceAlpha" type="matrix" values="0 0 0 0 0 0 0 0 0 0 0 0 0 0 0 0 0 0 127 0" result="hardAlpha"/>
<feOffset dy="4"/>
<feGaussianBlur stdDeviation="2"/>
<feComposite in2="hardAlpha" operator="out"/>
<feColorMatrix type="matrix" values="0 0 0 0 0 0 0 0 0 0 0 0 0 0 0 0 0 0 0.25 0"/>
<feBlend mode="normal" in2="BackgroundImageFix" result="effect1_dropShadow_1_11"/>
<feBlend mode="normal" in="SourceGraphic" in2="effect1_dropShadow_1_11" result="shape"/>
</filter>
</defs>
</svg>
