<svg width="70" height="44" viewBox="0 0 70 44" fill="none" xmlns="http://www.w3.org/2000/svg">
<path d="M64.2354 0.372375C64.9804 0.372375 65.6803 0.494867 66.335 0.739851C66.9897 0.984835 67.5654 1.3421 68.0621 1.81166C68.5588 2.28121 68.9426 2.8018 69.2135 3.37343C69.4844 3.94506 69.6312 4.57793 69.6538 5.27205V38.5899C69.6538 39.2636 69.5183 39.8965 69.2474 40.4885C68.9765 41.0805 68.5814 41.6011 68.0621 42.0503C67.5428 42.4994 66.9671 42.8465 66.335 43.0915C65.7028 43.3364 65.003 43.4691 64.2354 43.4896H5.71662C4.97159 43.4896 4.27171 43.3671 3.61699 43.1221C2.96227 42.8771 2.38656 42.5198 1.88987 42.0503C1.39319 41.5807 1.00938 41.0601 0.738463 40.4885C0.467543 39.9169 0.320794 39.284 0.298218 38.5899V5.27205C0.298218 4.59835 0.433678 3.96547 0.704598 3.37343C0.975518 2.78138 1.37061 2.26079 1.88987 1.81166C2.40914 1.36252 2.98484 1.01546 3.61699 0.770474C4.24914 0.52549 4.94901 0.392791 5.71662 0.372375H64.2354ZM5.71662 4.29212C5.40055 4.29212 5.14091 4.38399 4.93772 4.56773C4.73453 4.75146 4.63294 4.98624 4.63294 5.27205V12.1316H65.319V5.27205C65.319 4.98624 65.2174 4.75146 65.0142 4.56773C64.8111 4.38399 64.5514 4.29212 64.2354 4.29212H5.71662ZM64.2354 39.5698C64.5514 39.5698 64.8111 39.4779 65.0142 39.2942C65.2174 39.1105 65.319 38.8757 65.319 38.5899V16.0513H4.63294V38.5899C4.63294 38.8757 4.73453 39.1105 4.93772 39.2942C5.14091 39.4779 5.40055 39.5698 5.71662 39.5698H64.2354ZM47.9801 27.8106H56.6496V31.7303H47.9801V27.8106Z" fill="black"/>
</svg>
