<svg width="65" height="25" viewBox="0 0 65 25" fill="none" xmlns="http://www.w3.org/2000/svg">
<path d="M64.1571 12.374V12.3678C64.1571 8.72141 60.0555 5.44672 53.5424 3.1948L53.5106 3.18453C53.4302 3.15096 53.3403 3.121 53.2426 3.09519L53.2373 3.09416C47.4527 1.12825 40.0138 0.0467682 32.3158 0.0525745C24.272 0.0525745 16.9285 1.20883 11.3307 3.11675L11.3652 3.10546C11.2977 3.12527 11.2355 3.14763 11.1795 3.17221C7.8142 4.32558 5.12053 5.74358 3.27687 7.3303C1.43321 8.91702 0.481656 10.6373 0.48524 12.3771C0.48524 16.0225 4.58146 19.2971 11.0893 21.5501L11.1211 21.5604C11.2054 21.5974 11.2996 21.6308 11.4023 21.66L11.4076 21.661C17.1907 23.624 24.624 24.7039 32.3158 24.6985C40.0436 24.7031 47.5088 23.6132 53.3037 21.6343L53.2692 21.6456C56.6928 20.4935 59.4371 19.0702 61.3164 17.4721C63.1957 15.8739 64.1663 14.1381 64.1624 12.3822V12.375L64.1571 12.374ZM52.3194 20.3887C50.7424 19.8949 49.0464 19.461 47.2548 19.0928L47.0824 19.0599C48.7087 17.2455 49.6876 15.1537 49.7805 12.9778V12.9614H61.0849C60.7037 15.7764 57.5733 18.4303 52.3274 20.3856L52.3194 20.3887ZM33.8387 18.8433C37.2424 18.9141 40.4234 19.2037 43.3576 19.675L43.1666 19.6483C40.816 21.7226 37.5077 23.1479 33.8387 23.4611V18.8433ZM33.8387 17.6685V12.9614H46.7534C46.651 14.9106 45.7777 16.8423 44.1641 18.6892L44.2676 18.5547C40.9738 18.0307 37.4706 17.7312 33.9129 17.6696L33.8413 17.6685H33.8387ZM33.8387 11.7866V7.07945C37.4923 7.0149 41.0892 6.70533 44.4692 6.1645L44.2596 6.19428C45.732 7.85679 46.6367 9.77293 46.7534 11.7651V11.7866H33.8387ZM33.8387 5.90471V1.28893C37.5077 1.60212 40.816 3.02126 43.1666 5.10169C40.4234 5.54325 37.2424 5.8318 33.9156 5.90368L33.8387 5.90471ZM41.4103 1.79723C44.5365 2.20082 47.4602 2.80937 50.0538 3.5963L49.9927 3.57782C48.8175 3.93517 47.4989 4.27198 46.1088 4.56464L45.9602 4.59339C44.8368 3.56727 43.2923 2.61818 41.3864 1.78285L41.4103 1.79415V1.79723ZM30.7983 1.29201V5.90471C27.5258 5.84009 24.3062 5.55876 21.2794 5.07294L21.4704 5.09964C23.8316 3.02536 27.1346 1.60109 30.8036 1.2879L30.7983 1.29201ZM18.6795 4.59031C17.2413 4.29083 15.8711 3.94492 14.5832 3.55626L14.6469 3.57474C17.165 2.8109 19.9972 2.2166 23.0251 1.81674L23.2267 1.79312C21.3707 2.60582 19.8584 3.527 18.7458 4.52254L18.6795 4.59031ZM30.8036 7.07842V11.7856H17.8889C18.0056 9.7719 18.9103 7.85576 20.4862 6.05874L20.3827 6.19326C23.6752 6.71642 27.1764 7.01552 30.732 7.07739L30.8036 7.07842ZM30.8036 12.9603V17.6675C27.15 17.732 23.5531 18.0416 20.1731 18.5824L20.3827 18.5527C18.9103 16.8912 18.0056 14.974 17.8889 12.9819V12.9603H30.8036ZM30.8036 18.8422V23.458C27.1346 23.1448 23.8263 21.7257 21.4757 19.6453C24.2189 19.2037 27.3998 18.9162 30.7267 18.8443L30.8036 18.8422ZM23.2426 22.9497C20.1173 22.5473 17.1936 21.9402 14.5992 21.1548L14.6628 21.1732C15.8381 20.8159 17.1566 20.4791 18.5468 20.1864L18.6954 20.1577C19.8093 21.1842 21.3538 22.1325 23.2665 22.9641L23.2426 22.9538V22.9497ZM45.9628 20.1566C47.5016 20.4801 48.8201 20.8159 50.0591 21.1907L49.9954 21.1722C47.4773 21.936 44.645 22.5304 41.6172 22.9302L41.4156 22.9538C43.2716 22.1415 44.7839 21.2207 45.8965 20.2254L45.9628 20.1587V20.1566ZM61.0849 11.7866H49.7805C49.6992 9.66197 48.7519 7.55561 46.9736 5.5453L47.0824 5.68701C48.9565 5.30508 50.7307 4.85389 52.3804 4.33976L52.3168 4.35824C57.5518 6.30624 60.6833 8.95024 61.0796 11.7568L61.0822 11.7856L61.0849 11.7866ZM12.3229 4.35927C13.851 4.83984 15.5675 5.28037 17.3875 5.65518L17.5599 5.68804C15.9336 7.50252 14.9547 9.59425 14.8618 11.7702V11.7866H3.55475C3.93597 8.97156 7.06638 6.31772 12.3123 4.36235L12.3229 4.35927ZM3.5574 12.9614H14.8618C14.9431 15.086 15.8904 17.1924 17.6687 19.2027L17.5599 19.061C15.5675 19.4707 13.8537 19.9112 12.2619 20.4082L12.3255 20.3897C7.09049 18.4417 3.95897 15.7977 3.56271 12.9911L3.56006 12.9624L3.5574 12.9614Z" fill="white"/>
</svg>
