<svg width="75" height="59" viewBox="0 0 75 59" fill="none" xmlns="http://www.w3.org/2000/svg">
<path d="M64.2652 18.6H67.8523C69.644 18.6 71.3622 19.1581 72.6291 20.1515C73.896 21.1449 74.6077 22.4923 74.6077 23.8972V34.4916C74.6077 35.8965 73.896 37.2439 72.6291 38.2373C71.3622 39.2307 69.644 39.7888 67.8523 39.7888H64.2652C63.4417 44.9094 60.2635 49.6183 55.3269 53.0318C50.3904 56.4454 44.0348 58.329 37.453 58.329V53.0318C42.8279 53.0318 47.9827 51.3576 51.7834 48.3773C55.584 45.397 57.7192 41.3549 57.7192 37.1402V21.2486C57.7192 17.0339 55.584 12.9918 51.7834 10.0115C47.9827 7.03124 42.8279 5.35695 37.453 5.35695C32.078 5.35695 26.9232 7.03124 23.1226 10.0115C19.3219 12.9918 17.1867 17.0339 17.1867 21.2486V39.7888H7.05363C5.26198 39.7888 3.54372 39.2307 2.27683 38.2373C1.00995 37.2439 0.298218 35.8965 0.298218 34.4916V23.8972C0.298218 22.4923 1.00995 21.1449 2.27683 20.1515C3.54372 19.1581 5.26198 18.6 7.05363 18.6H10.6407C11.465 13.4799 14.6436 8.77172 19.5801 5.35874C24.5166 1.94576 30.8717 0.0625916 37.453 0.0625916C44.0342 0.0625916 50.3893 1.94576 55.3258 5.35874C60.2623 8.77172 63.4409 13.4799 64.2652 18.6ZM7.05363 23.8972V34.4916H10.4313V23.8972H7.05363ZM64.4746 23.8972V34.4916H67.8523V23.8972H64.4746ZM23.1315 39.2194L26.7119 34.7273C29.9311 36.3086 33.6543 37.145 37.453 37.1402C41.2517 37.145 44.9749 36.3086 48.1941 34.7273L51.7744 39.2194C47.4823 41.328 42.518 42.4435 37.453 42.4374C32.3879 42.4437 27.4236 41.3282 23.1315 39.2194Z" fill="black"/>
</svg>
