<svg width="66" height="74" viewBox="0 0 66 74" fill="none" xmlns="http://www.w3.org/2000/svg">
<path d="M57.8368 62.7462H62.9382V33.1034C62.5779 30.5043 61.3073 19.7044 60.0936 14.2078C59.9621 12.912 59.5561 11.6529 58.8988 10.5024C57.6138 8.89505 55.8461 7.67355 53.8164 6.99026C50.2278 5.47503 46.4408 4.40057 42.5515 3.79417C39.2634 3.26817 35.9319 3.00963 32.5952 3.02149C29.2394 3.00654 25.8888 3.2651 22.582 3.79417C18.6927 4.40057 14.9057 5.47503 11.3171 6.99026C9.28734 7.67355 7.5197 8.89505 6.23466 10.5024C5.57736 11.6529 5.17137 12.912 5.0399 14.2078C3.82618 19.7746 2.55557 30.5043 2.25214 33.1034V62.7462H7.35356M57.8368 62.7462V67.4701C57.8762 68.0217 57.7928 68.575 57.5919 69.0956C57.391 69.6161 57.0768 70.093 56.6688 70.4966C56.2607 70.9002 55.7676 71.2219 55.2199 71.4419C54.6722 71.6618 54.0815 71.7753 53.4845 71.7753C52.8875 71.7753 52.2968 71.6618 51.7491 71.4419C51.2013 71.2219 50.7082 70.9002 50.3002 70.4966C49.8922 70.093 49.578 69.6161 49.3771 69.0956C49.1762 68.575 49.0928 68.0217 49.1321 67.4701V62.7462H16.0582V67.4701C16.0976 68.0217 16.0142 68.575 15.8133 69.0956C15.6124 69.6161 15.2982 70.093 14.8902 70.4966C14.4822 70.9002 13.989 71.2219 13.4413 71.4419C12.8936 71.6618 12.3029 71.7753 11.7059 71.7753C11.1089 71.7753 10.5182 71.6618 9.97049 71.4419C9.42276 71.2219 8.92962 70.9002 8.52162 70.4966C8.11361 70.093 7.79942 69.6161 7.5985 69.0956C7.39759 68.575 7.31422 68.0217 7.35356 67.4701V62.7462M57.8368 62.7462H7.35356M16.722 10.0107H48.3546M12.6067 15.0507C11.9754 15.0703 11.3721 15.2962 10.9034 15.6883C10.4348 16.0805 10.1313 16.6136 10.0465 17.1932L7.63803 33.3843C7.5392 34.0235 7.71388 34.6731 8.12482 35.1947C8.53576 35.7162 9.15047 36.0686 9.8379 36.1765H54.8973C55.5986 36.1768 56.2723 35.9237 56.7752 35.4712C57.2781 35.0186 57.5705 34.4022 57.5903 33.7531C57.5996 33.6421 57.5996 33.5305 57.5903 33.4195L55.1818 17.2283C55.0945 16.634 54.7773 16.0892 54.2889 15.6952C53.8006 15.3011 53.1745 15.0846 52.5268 15.0858H12.7015L12.6067 15.0507ZM11.7343 45.7121C10.8288 45.7086 9.94254 45.9543 9.18804 46.418C8.43354 46.8817 7.8448 47.5425 7.49653 48.3166C7.14825 49.0906 7.05615 49.943 7.23189 50.7656C7.40764 51.5882 7.84331 52.3439 8.48364 52.9369C9.12396 53.5298 9.94007 53.9332 10.8284 54.096C11.7167 54.2587 12.6373 54.1734 13.4732 53.8509C14.3091 53.5284 15.0227 52.9833 15.5234 52.2846C16.0242 51.5859 16.2895 50.7653 16.2858 49.9267C16.2858 48.8089 15.8063 47.7369 14.9527 46.9465C14.0991 46.1561 12.9415 45.7121 11.7343 45.7121ZM53.456 45.7121C52.5513 45.7121 51.6669 45.9608 50.9149 46.4266C50.1629 46.8924 49.5771 47.5544 49.2317 48.3288C48.8864 49.1031 48.797 49.955 48.9749 50.7764C49.1528 51.5979 49.5899 52.3519 50.231 52.9431C50.8721 53.5343 51.6882 53.936 52.5761 54.0973C53.4639 54.2586 54.3834 54.1723 55.2182 53.8493C56.053 53.5262 56.7655 52.9811 57.2654 52.2828C57.7654 51.5845 58.0302 50.7645 58.0265 49.9267C58.029 49.3711 57.9124 48.8206 57.6833 48.307C57.4543 47.7935 57.1174 47.3272 56.6923 46.9351C56.2671 46.543 55.7621 46.233 55.2066 46.0231C54.6511 45.8132 54.056 45.7075 53.456 45.7121Z" stroke="black" stroke-width="4.16667" stroke-linecap="round" stroke-linejoin="round"/>
</svg>
