<svg width="64" height="26" viewBox="0 0 64 26" fill="none" xmlns="http://www.w3.org/2000/svg">
<path d="M62.8771 20.4569L48.5217 15.1925C47.8431 14.9437 46.9391 14.8058 46.0005 14.808C45.062 14.8101 44.1623 14.9521 43.4915 15.2039L34.6224 18.5328C32.5509 18.3603 28.3991 17.8198 24.1991 16.1303C19.9994 14.4351 18.7997 12.8132 18.4647 12.0165L27.5662 8.78283C28.2561 8.53854 28.6712 8.20085 28.7236 7.84122C28.776 7.4816 28.4617 7.12826 27.8471 6.85598L14.8619 1.0942C14.247 0.821083 13.3789 0.650675 12.4419 0.619166C11.5048 0.587657 10.5727 0.697529 9.84337 0.925447L1.83422 3.43023C1.19383 3.66479 0.800118 3.98136 0.727758 4.3199C0.651003 4.66595 -0.916704 12.8657 15.262 19.3932C29.3763 25.084 47.4823 25.6639 52.4761 25.7117C53.2061 25.7187 53.6547 25.7147 53.7741 25.713C54.6589 25.7025 55.5023 25.5668 56.1419 25.332L63.0588 22.3868C63.6909 22.1196 64.0257 21.7682 63.9918 21.4076C63.9578 21.0471 63.5578 20.7059 62.8771 20.4569Z" fill="white"/>
</svg>
