<svg width="57" height="19" viewBox="0 0 57 19" fill="none" xmlns="http://www.w3.org/2000/svg">
<path d="M49.6343 4.55957L28.8331 10.4849L8.03188 4.55957M5.57765 2.59817C4.87398 2.59817 4.19912 2.70636 3.70155 2.89894C3.20397 3.09153 2.92444 3.35273 2.92444 3.62508V15.2344C2.92444 15.5067 3.20397 15.7679 3.70155 15.9605C4.19912 16.1531 4.87398 16.2613 5.57765 16.2613H52.0885C52.7922 16.2613 53.467 16.1531 53.9646 15.9605C54.4622 15.7679 54.7417 15.5067 54.7417 15.2344V3.60968C54.7417 3.33732 54.4622 3.07612 53.9646 2.88354C53.467 2.69096 52.7922 2.58276 52.0885 2.58276H5.57765V2.59817Z" stroke="white" stroke-width="4.16667" stroke-linecap="round" stroke-linejoin="round"/>
</svg>
