<svg width="29" height="32" viewBox="0 0 29 32" fill="none" xmlns="http://www.w3.org/2000/svg">
<path d="M19.3284 12.729C19.3287 11.4959 18.9729 10.2887 18.3035 9.25187C17.6342 8.21505 16.6797 7.39248 15.554 6.88249V0C19.3874 0.336101 21.3787 1.54054 23.1617 3.18894C23.2511 3.27275 23.3405 3.35388 23.4263 3.43233C24.1859 4.12771 24.7901 4.68223 25.102 5.51134L28.8862 15.5605C28.9876 15.8302 29.022 16.1204 28.9863 16.4063C28.9507 16.6922 28.8461 16.9651 28.6815 17.2019C28.517 17.4386 28.2973 17.632 28.0414 17.7655C27.7855 17.899 27.501 17.9687 27.2122 17.9685H25.7545V20.0537L18.9843 14.8089C19.2135 14.1397 19.33 13.4372 19.3293 12.7299L19.3284 12.729ZM10.1915 6.90032V0.120355C2.15663 1.32657 0 7.30596 0 10.5814C0 15.7227 3.2917 19.7105 4.83522 21.309V32H20.1292V26.1945H23.9661C24.236 26.1945 24.4934 26.1338 24.7222 26.0269L15.2618 18.6986C13.6982 19.3423 11.9434 19.3459 10.3771 18.7087C8.81077 18.0716 7.55896 16.8449 6.89251 15.2941C6.22606 13.7433 6.19855 11.9931 6.81595 10.4222C7.43335 8.85134 8.646 7.58612 10.1915 6.90032Z" fill="#563D85"/>
</svg>
