<svg width="46" height="54" viewBox="0 0 46 54" fill="none" xmlns="http://www.w3.org/2000/svg">
<g filter="url(#filter0_d_1_15)">
<path d="M24.9377 43.8036L24.9338 43.8105C24.5211 44.5463 23.841 45.0706 23.0431 45.2682C22.2453 45.4659 21.3949 45.3206 20.6791 44.8644L20.6702 44.8587L6.25197 35.6667C5.54232 35.2089 5.02545 34.481 4.81425 33.6422C4.60305 32.8033 4.71469 31.9215 5.12479 31.1895L5.13251 31.1757L21.4789 2.02689L21.4866 2.01312C21.897 1.2813 22.5725 0.758818 23.3654 0.559816C24.1584 0.360813 25.0044 0.50146 25.7186 0.951034L40.1368 10.1431L40.1435 10.1473C40.8592 10.6037 41.3817 11.3337 41.596 12.1766C41.8104 13.0196 41.699 13.9065 41.2865 14.6423L41.2813 14.6515L24.9377 43.8036ZM37.0558 18.0931L37.3237 18.2639C37.5447 18.4048 37.8297 18.3342 37.9571 18.107C38.0845 17.8798 38.008 17.5787 37.787 17.4378L37.5191 17.267C37.2981 17.1261 37.0131 17.1967 36.8856 17.4239C36.7582 17.6511 36.8348 17.9523 37.0558 18.0931ZM35.1802 16.8959L35.4481 17.0666C35.6691 17.2075 35.9542 17.1369 36.0816 16.9097C36.209 16.6825 36.1324 16.3814 35.9114 16.2405L35.6435 16.0697C35.4225 15.9288 35.1375 15.9994 35.0101 16.2266C34.8827 16.4538 34.9592 16.755 35.1802 16.8959ZM33.7694 10.0821L37.4415 12.4231C37.6625 12.564 37.9476 12.4934 38.075 12.2662C38.2024 12.0391 38.1258 11.7379 37.9048 11.597L34.2327 9.25596C34.0117 9.11507 33.7267 9.18567 33.5993 9.41286C33.4719 9.64005 33.5484 9.9412 33.7694 10.0821ZM24.6153 6.6822L36.4351 14.2177C36.6561 14.3586 36.9412 14.288 37.0686 14.0608C37.196 13.8336 37.1194 13.5325 36.8984 13.3916L25.0786 5.85607C24.8576 5.71518 24.5725 5.78578 24.4451 6.01297C24.3177 6.24016 24.3943 6.54131 24.6153 6.6822ZM27.5916 24.2136C28.0964 24.4314 28.6529 24.4565 29.1617 24.2845C29.6706 24.1125 30.0987 23.7546 30.3698 23.2745L30.3788 23.2585C30.6425 22.7756 30.7346 22.206 30.639 21.6476C30.5435 21.0893 30.2663 20.577 29.8552 20.1988L29.8436 20.1898L30.2605 19.4463C30.5343 18.9566 30.6082 18.3668 30.4659 17.8061C30.3237 17.2454 29.977 16.7595 29.5017 16.4548L26.7985 14.7314C25.8026 14.0998 24.6212 13.8994 23.5126 14.174C22.404 14.4486 21.4584 15.1758 20.8827 16.1967L12.2926 31.5146C12.2342 31.6246 12.2193 31.7554 12.2509 31.8796C12.2825 32.0039 12.3582 32.1122 12.4623 32.182L19.9136 36.9324C20.0205 36.9971 20.1458 37.017 20.2634 36.9878C20.3811 36.9587 20.482 36.8828 20.5453 36.7759L22.6635 32.9987C23.1685 33.2177 23.7257 33.2434 24.2352 33.0712C24.7446 32.8991 25.173 32.5402 25.4435 32.0591L25.4512 32.0453C25.7153 31.5623 25.8077 30.9924 25.7124 30.4336C25.6171 29.8749 25.34 29.3621 24.9289 28.9834L24.9173 28.9744L27.5916 24.2136ZM23.6305 34.7787C23.6593 34.7275 23.678 34.6705 23.6856 34.611C23.6931 34.5515 23.6893 34.4906 23.6743 34.4319C23.6594 34.3732 23.6337 34.3177 23.5986 34.2688C23.5635 34.2198 23.5197 34.1783 23.4698 34.1466L23.4475 34.1324C23.3395 34.0667 23.2128 34.0468 23.0941 34.077C22.9753 34.1071 22.874 34.1849 22.8114 34.2939L20.124 38.8267C19.9966 39.0539 20.0732 39.355 20.2942 39.4959C20.5152 39.6368 20.8002 39.5662 20.9276 39.339L23.6305 34.7787ZM26.8318 28.0299C26.9387 28.0946 27.064 28.1145 27.1816 28.0853C27.2993 28.0562 27.4002 27.9803 27.4635 27.8734L28.7002 25.6681C28.8276 25.4409 28.7511 25.1397 28.5301 24.9989C28.3091 24.858 28.024 24.9286 27.8966 25.1558L26.6599 27.3611C26.6004 27.4725 26.5856 27.6053 26.6187 27.7312C26.6517 27.857 26.73 27.9659 26.8367 28.0346L26.8318 28.0299ZM33.3096 15.7033L33.5775 15.874C33.7985 16.0149 34.0835 15.9443 34.2109 15.7171C34.3383 15.49 34.2617 15.1888 34.0408 15.0479L33.7729 14.8771C33.5519 14.7362 33.2668 14.8068 33.1394 15.034C33.012 15.2612 33.0886 15.5624 33.3096 15.7033ZM31.4323 14.5064L31.7001 14.6772C31.9211 14.8181 32.2062 14.7475 32.3336 14.5203C32.461 14.2931 32.3844 13.9919 32.1634 13.8511L31.8955 13.6803C31.6745 13.5394 31.3895 13.61 31.2621 13.8372C31.1347 14.0644 31.2113 14.3655 31.4323 14.5064ZM29.5571 13.311L29.825 13.4818C30.046 13.6226 30.3311 13.552 30.4585 13.3248C30.5859 13.0977 30.5093 12.7965 30.2883 12.6556L30.0204 12.4848C29.7994 12.344 29.5144 12.4146 29.387 12.6417C29.2596 12.8689 29.3362 13.1701 29.5571 13.311ZM27.682 12.1155L27.9499 12.2863C28.1709 12.4272 28.456 12.3566 28.5834 12.1294C28.7108 11.9022 28.6342 11.6011 28.4132 11.4602L28.1476 11.2908C27.9266 11.1499 27.6415 11.2205 27.5141 11.4477C27.3867 11.6749 27.4633 11.9761 27.6843 12.117L27.682 12.1155ZM28.3341 6.73527L29.3788 7.4013C29.5998 7.54219 29.8848 7.47158 30.0122 7.24439C30.1396 7.01721 30.063 6.71605 29.842 6.57516L28.7973 5.90914C28.5763 5.76825 28.2913 5.83885 28.1639 6.06604C28.0365 6.29323 28.1131 6.59438 28.3341 6.73527ZM12.9526 35.7874L12.9593 35.7917C13.0111 35.8248 13.0684 35.8471 13.1278 35.8573C13.1872 35.8675 13.2476 35.8654 13.3054 35.851C13.3633 35.8367 13.4175 35.8105 13.465 35.7738C13.5125 35.7371 13.5523 35.6908 13.5821 35.6374L13.586 35.6305L14.1265 34.6667C14.2539 34.4395 14.1773 34.1383 13.9563 33.9974C13.7353 33.8565 13.4503 33.9271 13.3229 34.1543L12.7824 35.1182C12.724 35.2285 12.7091 35.3596 12.7408 35.4841C12.7725 35.6087 12.8483 35.7173 12.9526 35.7874ZM25.8065 10.9183L26.0743 11.089C26.2953 11.2299 26.5804 11.1593 26.7078 10.9321C26.8352 10.7049 26.7586 10.4038 26.5376 10.2629L26.2698 10.0921C26.0488 9.95123 25.7637 10.0218 25.6363 10.249C25.5089 10.4762 25.5855 10.7774 25.8065 10.9183ZM10.7695 35.3302L10.7762 35.3345C10.8281 35.3676 10.8853 35.39 10.9447 35.4001C11.0041 35.4103 11.0645 35.4082 11.1224 35.3939C11.1802 35.3795 11.2345 35.3533 11.2819 35.3166C11.3294 35.28 11.3692 35.2336 11.3991 35.1802L11.403 35.1733L12.3308 33.5187C12.4582 33.2916 12.3816 32.9904 12.1607 32.8495C11.9397 32.7086 11.6546 32.7792 11.5272 33.0064L10.5993 34.661C10.541 34.7713 10.5261 34.9024 10.5577 35.027C10.5894 35.1516 10.6652 35.2601 10.7695 35.3302ZM25.6549 5.02565L26.7018 5.6931C26.9228 5.83399 27.2078 5.76338 27.3352 5.5362C27.4627 5.30901 27.3861 5.00785 27.1651 4.86696L26.1181 4.19951C25.8972 4.05862 25.6121 4.12923 25.4847 4.35642C25.3573 4.58361 25.4339 4.88476 25.6549 5.02565ZM23.9296 9.72325L24.1975 9.89403C24.4185 10.0349 24.7035 9.96431 24.8309 9.73713C24.9583 9.50994 24.8818 9.20878 24.6608 9.06789L24.3929 8.89712C24.1719 8.75623 23.8868 8.82683 23.7594 9.05402C23.632 9.28121 23.7086 9.58236 23.9296 9.72325ZM22.0545 8.52782L22.3224 8.6986C22.5434 8.83949 22.8284 8.76888 22.9558 8.54169C23.0832 8.31451 23.0066 8.01335 22.7857 7.87246L22.5155 7.70026C22.2946 7.55937 22.0095 7.62998 21.8821 7.85717C21.7547 8.08435 21.8313 8.38551 22.0523 8.5264L22.0545 8.52782ZM20.1776 7.33282L20.4455 7.5036C20.6665 7.64449 20.9515 7.57388 21.079 7.3467C21.2064 7.11951 21.1298 6.81836 20.9088 6.67746L20.6387 6.50527C20.4177 6.36438 20.1326 6.43498 20.0052 6.66217C19.8778 6.88936 19.9544 7.19051 20.1754 7.3314L20.1776 7.33282ZM27.7216 23.1361L27.6145 23.0678C27.5609 23.0336 27.5228 22.9719 27.4692 22.9378C27.4424 22.9207 27.4311 22.8761 27.4043 22.859C27.3661 22.7973 27.3394 22.7802 27.3007 22.7167C27.2894 22.6721 27.2626 22.655 27.2508 22.6085C27.2145 22.5783 27.1878 22.5373 27.1742 22.4912C27.1458 22.4447 27.1252 22.3936 27.1134 22.3402C27.102 22.2956 27.0752 22.2785 27.0639 22.2339C27.0281 22.1818 27.0119 22.1181 27.0185 22.0555L27.018 22.0536C27.0067 22.009 26.9799 21.9919 26.9954 21.9644C26.9861 21.903 26.9848 21.8408 26.9914 21.7796L26.9922 21.7754C27.0077 21.7479 26.9809 21.7308 26.9963 21.7033C27.0004 21.6311 27.0313 21.5761 27.0354 21.5039C27.0241 21.4593 27.024 21.4593 27.0395 21.4318C27.0957 21.2425 27.1927 21.0705 27.3231 20.9288L27.3175 20.9361C27.3597 20.9256 27.3597 20.9256 27.3751 20.8981C27.4328 20.8601 27.4637 20.805 27.5214 20.767C27.5368 20.7395 27.5636 20.7565 27.579 20.729C27.6342 20.7089 27.6862 20.6807 27.7336 20.6453L27.7366 20.6426L27.8211 20.6216C27.8901 20.6283 27.9495 20.5898 27.99 20.5798C28.0305 20.5698 28.059 20.5864 28.103 20.5755C28.1549 20.5802 28.2068 20.5754 28.2565 20.5612C28.2987 20.5507 28.3523 20.5849 28.3963 20.574C28.4403 20.5631 28.4653 20.5806 28.5093 20.5697C28.5533 20.5588 28.6051 20.5934 28.6741 20.6C28.7009 20.6171 28.7431 20.6067 28.7699 20.6237C28.8098 20.6369 28.8518 20.6407 28.8926 20.6346C28.9335 20.6286 28.9723 20.613 29.0061 20.5889L29.115 20.6568C29.4059 20.8731 29.6114 21.194 29.6904 21.5553C29.7695 21.9166 29.7161 22.2914 29.541 22.6046C29.3659 22.9178 29.0822 23.1462 28.7466 23.2439C28.411 23.3417 28.0485 23.3016 27.7317 23.1316L27.7272 23.1288L27.7216 23.1361ZM28.0305 22.5853C28.1875 22.6832 28.3729 22.7139 28.5469 22.6708C28.7209 22.6276 28.8697 22.5142 28.9613 22.3548L28.9785 22.3268C29.0223 22.2482 29.0502 22.1606 29.0603 22.0692C29.0705 21.9779 29.0628 21.8847 29.0376 21.7954C29.0124 21.7061 28.9704 21.6225 28.914 21.5497C28.8576 21.4769 28.788 21.4164 28.7095 21.3718L28.7117 21.3732C28.6343 21.3239 28.5489 21.2907 28.4603 21.2756C28.3718 21.2604 28.2818 21.2637 28.1955 21.285C28.1092 21.3064 28.0284 21.3455 27.9575 21.4001C27.8867 21.4547 27.8273 21.5238 27.7827 21.6034C27.738 21.6829 27.7091 21.7714 27.6975 21.8638C27.6859 21.9562 27.6919 22.0507 27.715 22.1418C27.7382 22.2329 27.7782 22.319 27.8326 22.395C27.887 22.471 27.9531 22.536 28.0305 22.5853ZM22.7773 31.9528L22.6702 31.8845C22.6166 31.8503 22.5784 31.7887 22.5249 31.7545C22.4981 31.7374 22.4867 31.6928 22.46 31.6757C22.4486 31.6311 22.395 31.597 22.3569 31.5353C22.3456 31.4906 22.3188 31.4736 22.307 31.4271C22.2699 31.3951 22.2432 31.3519 22.2307 31.3037C22.2005 31.2574 22.1797 31.2054 22.1694 31.1509C22.1426 31.1338 22.1313 31.0892 22.1199 31.0446C22.0818 30.9829 22.0877 30.9103 22.0745 30.8662L22.0519 30.7769C22.0426 30.7155 22.0413 30.6534 22.0479 30.5922L22.0487 30.588C22.0642 30.5605 22.0374 30.5434 22.0528 30.5158C22.0569 30.4437 22.0878 30.3886 22.0919 30.3165C22.0805 30.2718 22.0805 30.2718 22.096 30.2443C22.1522 30.0551 22.2492 29.8831 22.3796 29.7413L22.374 29.7486C22.4162 29.7382 22.4162 29.7382 22.4316 29.7106C22.4893 29.6726 22.5202 29.6176 22.5779 29.5796C22.5933 29.552 22.6201 29.5691 22.6355 29.5416C22.6906 29.5212 22.7426 29.4931 22.7901 29.4578L22.7931 29.4551L23.0465 29.3923C23.0887 29.3819 23.1155 29.399 23.1577 29.3885C23.2 29.378 23.2685 29.3828 23.313 29.3738C23.3574 29.3647 23.4088 29.3975 23.451 29.387C23.4932 29.3765 23.52 29.3936 23.564 29.3827C23.608 29.3718 23.6598 29.4064 23.7288 29.413C23.7556 29.4301 23.7979 29.4196 23.8247 29.4367C23.8646 29.4499 23.9065 29.4537 23.9474 29.4476C23.9883 29.4416 24.027 29.426 24.0608 29.4019L24.1697 29.4698C24.4606 29.6861 24.6662 30.007 24.7452 30.3683C24.8242 30.7296 24.7708 31.1044 24.5957 31.4176C24.4207 31.7308 24.1369 31.9592 23.8013 32.0569C23.4657 32.1547 23.1032 32.1146 22.7864 31.9446L22.782 31.9418L22.7773 31.9528ZM23.0862 31.4021C23.2432 31.4999 23.4286 31.5306 23.6026 31.4875C23.7766 31.4444 23.9254 31.3309 24.017 31.1715L24.0234 31.16C24.0672 31.0822 24.0957 30.9955 24.1071 30.905C24.1186 30.8145 24.1128 30.722 24.0901 30.6327C24.0674 30.5434 24.0282 30.4591 23.9748 30.3847C23.9215 30.3103 23.8549 30.2471 23.779 30.1989L23.7657 30.1904C23.6094 30.0907 23.4237 30.059 23.2494 30.1022C23.0752 30.1453 22.9267 30.2598 22.8366 30.4205C22.7465 30.5812 22.7222 30.7749 22.769 30.9589C22.8158 31.143 22.9299 31.3024 23.0862 31.4021ZM29.0108 19.7321C28.8919 19.6907 28.7691 19.6647 28.6451 19.6548L28.6549 19.6563C28.541 19.6222 28.4226 19.6112 28.3063 19.6241L28.3098 19.6232C28.283 19.6061 28.2675 19.6337 28.2408 19.6166C28.13 19.6223 28.045 19.6414 27.9338 19.6452L27.8476 19.6666C27.7457 19.6681 27.646 19.6928 27.5555 19.7389L27.552 19.7398C27.5252 19.7227 27.5097 19.7502 27.4675 19.7607C27.3836 19.7828 27.3036 19.8179 27.2303 19.8649L27.2255 19.8681C27.21 19.8956 27.1832 19.8785 27.1678 19.9061C27.0947 19.9716 26.9948 20.0201 26.9199 20.086C26.9045 20.1136 26.8622 20.124 26.8468 20.1516C26.7737 20.2171 26.6851 20.3102 26.6102 20.3762L26.5793 20.4312C26.4172 20.6305 26.2898 20.8585 26.2028 21.1055L26.2087 21.0921L26.1753 21.1518C26.1557 21.2515 26.1207 21.3787 26.1017 21.4803C26.0862 21.5078 26.0976 21.5524 26.0821 21.58C26.0573 21.6846 26.047 21.793 26.0517 21.9017L26.052 21.8957C26.0366 21.9232 26.0634 21.9403 26.0479 21.9678C26.0706 22.0571 26.0511 22.1568 26.0738 22.246C26.1006 22.2631 26.0851 22.2906 26.0947 22.3357L26.1741 22.648C26.1587 22.6755 26.1855 22.6926 26.1986 22.7368C26.2463 22.8435 26.2707 22.9323 26.3202 23.0386C26.347 23.0557 26.3316 23.0832 26.3583 23.1003C26.3979 23.1972 26.4508 23.2948 26.5168 23.3851L26.5222 23.3917C26.5825 23.5015 26.6596 23.6006 26.7502 23.685L26.7551 23.6897L24.0539 28.5065C23.9349 28.4646 23.8119 28.4379 23.6877 28.4273L23.6974 28.4288C23.5908 28.4087 23.4826 28.4036 23.3756 28.4137L23.3791 28.4128C23.3523 28.3957 23.3369 28.4233 23.3101 28.4062C23.2063 28.406 23.103 28.4158 23.0014 28.4352L23.0032 28.4348C22.9877 28.4623 22.9609 28.4453 22.9169 28.4562C22.817 28.4691 22.7191 28.4933 22.6249 28.5285L22.6213 28.5294C22.5945 28.5123 22.5791 28.5398 22.5369 28.5503C22.4529 28.5724 22.373 28.6075 22.2996 28.6545L22.2948 28.6577C22.2794 28.6852 22.2526 28.6681 22.2372 28.6957C22.164 28.7612 22.0641 28.8097 21.9893 28.8756C21.9738 28.9032 21.9316 28.9136 21.9162 28.9412C21.843 29.0067 21.7545 29.0998 21.6796 29.1658L21.6474 29.2231C21.4852 29.4224 21.3579 29.6504 21.2708 29.8974L21.2768 29.884L21.2485 29.9345C21.2289 30.0342 21.194 30.1615 21.1749 30.263C21.1594 30.2905 21.1708 30.3352 21.1553 30.3627C21.1305 30.4674 21.1203 30.5757 21.1249 30.6844L21.1253 30.6784C21.1098 30.7059 21.1366 30.723 21.1212 30.7506C21.1368 30.8415 21.1261 30.939 21.1505 31.0278C21.1773 31.0449 21.1619 31.0725 21.1732 31.1171L21.2526 31.4294C21.2372 31.4569 21.264 31.474 21.2771 31.5182C21.3248 31.6249 21.3492 31.7137 21.3987 31.82C21.4255 31.8371 21.4101 31.8646 21.4368 31.8817C21.4848 31.9746 21.5479 32.0755 21.6162 32.1752L21.628 32.192C21.6845 32.2966 21.7608 32.3982 21.8542 32.4858L21.8591 32.4905L19.9725 35.8547L17.1308 34.043L26.1525 17.9582L27.9529 16.6309L29.0244 17.314L29.0267 17.3155C29.1566 17.3982 29.2705 17.5064 29.3619 17.634C29.4533 17.7615 29.5204 17.9059 29.5593 18.0589C29.5982 18.2119 29.6082 18.3704 29.5886 18.5255C29.5691 18.6805 29.5204 18.829 29.4455 18.9625L29.4442 18.9648L29.0108 19.7321ZM25.5431 17.2239C25.5009 17.2343 25.5009 17.2343 25.4854 17.2619L22.7777 15.5356C23.2975 15.1933 23.9027 15.0124 24.5255 15.013C25.1483 15.0137 25.7642 15.196 26.3044 15.5394L26.3066 15.5409L27.0835 16.0361L25.5431 17.2239ZM23.7908 20.2189L20.7906 18.3062L21.6863 16.709C21.8015 16.5145 21.9266 16.3373 22.0648 16.1746L22.0492 16.1943L24.9958 18.0728L23.7908 20.2189ZM16.3126 33.5541L13.3124 31.6414L14.2403 29.9868L17.2427 31.901L16.3126 33.5541ZM20.8114 25.4643L17.8112 23.5516L20.2988 19.1157L23.3012 21.0298L20.8114 25.4643ZM17.6731 31.0632L14.6729 29.1505L17.3458 24.3842L20.3482 26.2983L17.6731 31.0632Z" fill="#563D85"/>
</g>
<defs>
<filter id="filter0_d_1_15" x="0.709778" y="0.471588" width="44.9929" height="52.8828" filterUnits="userSpaceOnUse" color-interpolation-filters="sRGB">
<feFlood flood-opacity="0" result="BackgroundImageFix"/>
<feColorMatrix in="SourceAlpha" type="matrix" values="0 0 0 0 0 0 0 0 0 0 0 0 0 0 0 0 0 0 127 0" result="hardAlpha"/>
<feOffset dy="4"/>
<feGaussianBlur stdDeviation="2"/>
<feComposite in2="hardAlpha" operator="out"/>
<feColorMatrix type="matrix" values="0 0 0 0 0 0 0 0 0 0 0 0 0 0 0 0 0 0 0.25 0"/>
<feBlend mode="normal" in2="BackgroundImageFix" result="effect1_dropShadow_1_15"/>
<feBlend mode="normal" in="SourceGraphic" in2="effect1_dropShadow_1_15" result="shape"/>
</filter>
</defs>
</svg>
